<svg width="353" height="63" viewBox="0 0 353 63" fill="none" xmlns="http://www.w3.org/2000/svg">
<g opacity="0.8">
<path d="M97.782 38.199H86.6943L84.7892 43.6095H80.255L89.7425 17.0904H94.772L104.259 43.6095H99.6872L97.782 38.199ZM96.5628 34.6555L92.2572 22.3485L87.9136 34.6555H96.5628ZM112.728 15.4139V43.6095H108.385V15.4139H112.728ZM122.775 15.4139V43.6095H118.431V15.4139H122.775ZM132.821 25.7396C133.558 24.7235 134.561 23.898 135.831 23.2629C137.127 22.6025 138.562 22.2723 140.137 22.2723C141.991 22.2723 143.668 22.7168 145.166 23.6058C146.665 24.4949 147.846 25.765 148.71 27.4161C149.573 29.0418 150.005 30.9088 150.005 33.0171C150.005 35.1254 149.573 37.0178 148.71 38.6943C147.846 40.3454 146.652 41.6409 145.128 42.5807C143.629 43.4952 141.966 43.9524 140.137 43.9524C138.511 43.9524 137.063 43.6349 135.793 42.9999C134.548 42.3648 133.558 41.552 132.821 40.5613V43.6095H128.478V15.4139H132.821V25.7396ZM145.585 33.0171C145.585 31.5692 145.281 30.3245 144.671 29.2831C144.087 28.2162 143.299 27.4161 142.309 26.8826C141.343 26.3238 140.302 26.0444 139.184 26.0444C138.092 26.0444 137.051 26.3238 136.06 26.8826C135.095 27.4415 134.307 28.2543 133.698 29.3212C133.113 30.388 132.821 31.6454 132.821 33.0933C132.821 34.5412 133.113 35.8112 133.698 36.9035C134.307 37.9704 135.095 38.7832 136.06 39.3421C137.051 39.9009 138.092 40.1803 139.184 40.1803C140.302 40.1803 141.343 39.9009 142.309 39.3421C143.299 38.7578 144.087 37.9196 144.671 36.8273C145.281 35.735 145.585 34.465 145.585 33.0171ZM158.644 25.6634C159.279 24.5965 160.118 23.771 161.159 23.1867C162.226 22.5771 163.483 22.2723 164.931 22.2723V26.7683H163.826C162.124 26.7683 160.829 27.2002 159.94 28.0638C159.076 28.9275 158.644 30.4261 158.644 32.5599V43.6095H154.301V22.6152H158.644V25.6634ZM171.134 19.8337C170.346 19.8337 169.686 19.567 169.153 19.0336C168.619 18.5002 168.352 17.8397 168.352 17.0523C168.352 16.2648 168.619 15.6044 169.153 15.071C169.686 14.5375 170.346 14.2708 171.134 14.2708C171.896 14.2708 172.544 14.5375 173.077 15.071C173.61 15.6044 173.877 16.2648 173.877 17.0523C173.877 17.8397 173.61 18.5002 173.077 19.0336C172.544 19.567 171.896 19.8337 171.134 19.8337ZM173.268 22.6152V43.6095H168.924V22.6152H173.268ZM177.522 33.0171C177.522 30.9088 177.954 29.0418 178.818 27.4161C179.707 25.7904 180.901 24.533 182.4 23.6439C183.924 22.7295 185.613 22.2723 187.467 22.2723C188.839 22.2723 190.185 22.5771 191.506 23.1867C192.852 23.771 193.919 24.5584 194.707 25.5491V15.4139H199.088V43.6095H194.707V40.447C193.995 41.4631 193.005 42.3013 191.735 42.9618C190.49 43.6222 189.055 43.9524 187.429 43.9524C185.6 43.9524 183.924 43.4952 182.4 42.5807C180.901 41.6409 179.707 40.3454 178.818 38.6943C177.954 37.0178 177.522 35.1254 177.522 33.0171ZM194.707 33.0933C194.707 31.6454 194.402 30.388 193.792 29.3212C193.208 28.2543 192.433 27.4415 191.468 26.8826C190.503 26.3238 189.461 26.0444 188.344 26.0444C187.226 26.0444 186.184 26.3238 185.219 26.8826C184.254 27.4161 183.466 28.2162 182.857 29.2831C182.273 30.3245 181.98 31.5692 181.98 33.0171C181.98 34.465 182.273 35.735 182.857 36.8273C183.466 37.9196 184.254 38.7578 185.219 39.3421C186.21 39.9009 187.251 40.1803 188.344 40.1803C189.461 40.1803 190.503 39.9009 191.468 39.3421C192.433 38.7832 193.208 37.9704 193.792 36.9035C194.402 35.8112 194.707 34.5412 194.707 33.0933ZM213.252 22.2723C214.878 22.2723 216.313 22.6025 217.558 23.2629C218.828 23.898 219.818 24.6981 220.53 25.6634V22.6152H224.911V43.9524C224.911 45.8829 224.505 47.5975 223.692 49.0962C222.879 50.6203 221.698 51.8142 220.149 52.6778C218.625 53.5415 216.796 53.9733 214.662 53.9733C211.817 53.9733 209.455 53.3002 207.575 51.9539C205.695 50.633 204.628 48.8295 204.374 46.5434H208.68C209.01 47.6356 209.709 48.512 210.776 49.1724C211.868 49.8583 213.163 50.2012 214.662 50.2012C216.415 50.2012 217.824 49.6677 218.891 48.6009C219.984 47.534 220.53 45.9845 220.53 43.9524V40.447C219.793 41.4377 218.79 42.2759 217.52 42.9618C216.275 43.6222 214.853 43.9524 213.252 43.9524C211.423 43.9524 209.747 43.4952 208.223 42.5807C206.724 41.6409 205.53 40.3454 204.641 38.6943C203.777 37.0178 203.346 35.1254 203.346 33.0171C203.346 30.9088 203.777 29.0418 204.641 27.4161C205.53 25.7904 206.724 24.533 208.223 23.6439C209.747 22.7295 211.423 22.2723 213.252 22.2723ZM220.53 33.0933C220.53 31.6454 220.225 30.388 219.615 29.3212C219.031 28.2543 218.256 27.4415 217.291 26.8826C216.326 26.3238 215.284 26.0444 214.167 26.0444C213.049 26.0444 212.008 26.3238 211.042 26.8826C210.077 27.4161 209.29 28.2162 208.68 29.2831C208.096 30.3245 207.804 31.5692 207.804 33.0171C207.804 34.465 208.096 35.735 208.68 36.8273C209.29 37.9196 210.077 38.7578 211.042 39.3421C212.033 39.9009 213.074 40.1803 214.167 40.1803C215.284 40.1803 216.326 39.9009 217.291 39.3421C218.256 38.7832 219.031 37.9704 219.615 36.9035C220.225 35.8112 220.53 34.5412 220.53 33.0933ZM249.858 32.598C249.858 33.3854 249.808 34.0967 249.706 34.7317H233.665C233.792 36.4082 234.414 37.7545 235.532 38.7705C236.65 39.7866 238.021 40.2946 239.647 40.2946C241.984 40.2946 243.635 39.3167 244.6 37.3607H249.287C248.652 39.2912 247.496 40.8788 245.819 42.1235C244.168 43.3428 242.111 43.9524 239.647 43.9524C237.64 43.9524 235.837 43.5079 234.236 42.6188C232.662 41.7044 231.417 40.4343 230.502 38.8086C229.613 37.1575 229.169 35.2524 229.169 33.0933C229.169 30.9342 229.601 29.0418 230.464 27.4161C231.353 25.765 232.585 24.4949 234.16 23.6058C235.76 22.7168 237.589 22.2723 239.647 22.2723C241.628 22.2723 243.394 22.7041 244.943 23.5677C246.493 24.4314 247.699 25.6507 248.563 27.2256C249.426 28.775 249.858 30.5658 249.858 32.598ZM245.324 31.2263C245.299 29.626 244.727 28.3432 243.61 27.378C242.492 26.4127 241.108 25.9301 239.456 25.9301C237.958 25.9301 236.675 26.4127 235.608 27.378C234.541 28.3178 233.906 29.6006 233.703 31.2263H245.324ZM262.583 30.3118C262.583 27.7209 263.18 25.3967 264.373 23.3391C265.593 21.2816 267.231 19.6813 269.289 18.5383C271.372 17.3698 273.645 16.7856 276.109 16.7856C278.928 16.7856 281.431 17.4841 283.615 18.8812C285.825 20.2529 287.425 22.2088 288.416 24.7489H283.196C282.51 23.3518 281.558 22.3104 280.338 21.6245C279.119 20.9387 277.709 20.5958 276.109 20.5958C274.356 20.5958 272.794 20.9895 271.422 21.7769C270.051 22.5644 268.971 23.6948 268.184 25.168C267.422 26.6413 267.041 28.3559 267.041 30.3118C267.041 32.2677 267.422 33.9823 268.184 35.4556C268.971 36.9289 270.051 38.072 271.422 38.8848C272.794 39.6723 274.356 40.066 276.109 40.066C277.709 40.066 279.119 39.7231 280.338 39.0372C281.558 38.3514 282.51 37.3099 283.196 35.9129H288.416C287.425 38.453 285.825 40.4089 283.615 41.7806C281.431 43.1523 278.928 43.8381 276.109 43.8381C273.62 43.8381 271.346 43.2666 269.289 42.1235C267.231 40.955 265.593 39.3421 264.373 37.2845C263.18 35.227 262.583 32.9028 262.583 30.3118ZM302.607 43.9524C300.625 43.9524 298.834 43.5079 297.234 42.6188C295.634 41.7044 294.377 40.4343 293.462 38.8086C292.548 37.1575 292.09 35.2524 292.09 33.0933C292.09 30.9596 292.56 29.0672 293.5 27.4161C294.44 25.765 295.723 24.4949 297.349 23.6058C298.974 22.7168 300.79 22.2723 302.797 22.2723C304.804 22.2723 306.62 22.7168 308.246 23.6058C309.871 24.4949 311.154 25.765 312.094 27.4161C313.034 29.0672 313.504 30.9596 313.504 33.0933C313.504 35.227 313.021 37.1194 312.056 38.7705C311.091 40.4216 309.77 41.7044 308.093 42.6188C306.442 43.5079 304.613 43.9524 302.607 43.9524ZM302.607 40.1803C303.724 40.1803 304.766 39.9136 305.731 39.3802C306.722 38.8467 307.522 38.0466 308.131 36.9797C308.741 35.9129 309.046 34.6174 309.046 33.0933C309.046 31.5692 308.754 30.2864 308.17 29.245C307.585 28.1781 306.811 27.378 305.845 26.8445C304.88 26.3111 303.839 26.0444 302.721 26.0444C301.603 26.0444 300.562 26.3111 299.597 26.8445C298.657 27.378 297.907 28.1781 297.349 29.245C296.79 30.2864 296.51 31.5692 296.51 33.0933C296.51 35.354 297.082 37.1067 298.225 38.3514C299.393 39.5707 300.854 40.1803 302.607 40.1803ZM322.141 25.6634C322.776 24.5965 323.615 23.771 324.656 23.1867C325.723 22.5771 326.98 22.2723 328.428 22.2723V26.7683H327.323C325.621 26.7683 324.326 27.2002 323.437 28.0638C322.573 28.9275 322.141 30.4261 322.141 32.5599V43.6095H317.798V22.6152H322.141V25.6634ZM351.663 32.598C351.663 33.3854 351.612 34.0967 351.51 34.7317H335.469C335.596 36.4082 336.218 37.7545 337.336 38.7705C338.454 39.7866 339.825 40.2946 341.451 40.2946C343.788 40.2946 345.439 39.3167 346.404 37.3607H351.091C350.456 39.2912 349.3 40.8788 347.624 42.1235C345.973 43.3428 343.915 43.9524 341.451 43.9524C339.444 43.9524 337.641 43.5079 336.041 42.6188C334.466 41.7044 333.221 40.4343 332.307 38.8086C331.418 37.1575 330.973 35.2524 330.973 33.0933C330.973 30.9342 331.405 29.0418 332.269 27.4161C333.158 25.765 334.39 24.4949 335.964 23.6058C337.565 22.7168 339.394 22.2723 341.451 22.2723C343.433 22.2723 345.198 22.7041 346.747 23.5677C348.297 24.4314 349.503 25.6507 350.367 27.2256C351.231 28.775 351.663 30.5658 351.663 32.598ZM347.128 31.2263C347.103 29.626 346.531 28.3432 345.414 27.378C344.296 26.4127 342.912 25.9301 341.261 25.9301C339.762 25.9301 338.479 26.4127 337.412 27.378C336.345 28.3178 335.71 29.6006 335.507 31.2263H347.128Z" fill="white"/>
<path d="M46.8372 30.0787C46.8372 38.7913 39.7327 45.8542 30.9689 45.8542C22.2051 45.8542 15.1006 38.7913 15.1006 30.0787M46.8372 30.0787C46.8372 21.3661 39.7327 14.3032 30.9689 14.3032C22.2051 14.3032 15.1006 21.3661 15.1006 30.0787M46.8372 30.0787L46.8372 56.6938M15.1006 30.0787L15.1006 3.73218" stroke="white" stroke-width="6.2666" stroke-linecap="round"/>
<path d="M30.173 56.6927L29.0566 56.6927C15.2128 56.6927 3.99024 45.4701 3.99024 31.6263L3.99023 11.1849" stroke="white" stroke-width="6.2666" stroke-linecap="round"/>
<path d="M31.7567 3.34018L32.8731 3.34018C46.7168 3.34018 57.9395 14.5628 57.9395 28.4066L57.9395 48.0634" stroke="white" stroke-width="6.2666" stroke-linecap="round"/>
</g>
</svg>
