<svg width="401" height="63" viewBox="0 0 401 63" fill="none" xmlns="http://www.w3.org/2000/svg">
<g opacity="0.8" clip-path="url(#clip0_27_23191)">
<mask id="mask0_27_23191" style="mask-type:luminance" maskUnits="userSpaceOnUse" x="0" y="1" width="401" height="61">
<path d="M400.909 1.43182H0V61.5682H400.909V1.43182Z" fill="white"/>
</mask>
<g mask="url(#mask0_27_23191)">
<path d="M83.8519 1.88106C81.6707 0.978338 79.1971 1.46748 77.5333 3.14168L57.1196 23.6577V35.5323L79.0826 13.4892V52.4653H41.6059L37.1406 45.1879L29.9211 52.4653H29.9053L21.5518 60.8721H81.655C84.8241 60.8563 87.4281 58.2475 87.4281 55.0302V7.2616C87.4281 4.89145 86.0292 2.78378 83.8479 1.88106H83.8519Z" fill="white"/>
<path d="M20.1529 52.4618L45.7867 26.6686V49.7815H54.1402V20.457C54.1402 18.0868 52.7413 15.9792 50.5601 15.0764C48.3788 14.1737 45.9052 14.6629 44.2418 16.3371L0 60.8529H17.9717L26.3253 52.4618H20.1529Z" fill="white"/>
<path d="M245.009 32.6409C243.306 30.0839 241.12 28.0676 238.489 26.6201C235.857 25.1765 232.984 24.4528 229.934 24.4528C227.361 24.4528 224.97 24.934 222.785 25.8963C220.6 26.8587 218.628 28.3341 216.925 30.2311C215.309 31.9768 214.052 33.965 213.215 36.1007C212.377 38.2361 211.958 40.5863 211.958 43.0241C211.958 45.4619 212.436 47.7486 213.333 50.0352C214.262 52.3218 215.546 54.3381 217.162 56.056C218.897 57.8933 220.841 59.2773 222.963 60.1799C225.085 61.0825 227.48 61.5639 230.052 61.5639C233.881 61.5639 237.26 60.5101 240.132 58.462C243.005 56.4139 245.278 53.4034 246.862 49.5223L247.072 49.0091H239.354L239.236 49.1881C238.279 50.902 236.991 52.2582 235.379 53.2207C233.763 54.1551 231.969 54.6362 230.024 54.6362C227.302 54.6362 224.88 53.7653 222.908 52.0474C221.023 50.4209 219.798 48.2855 219.261 45.6965H247.973V44.3405C247.973 41.9345 247.731 39.7355 247.253 37.8384C246.775 35.9733 246.028 34.2276 245.009 32.6329V32.6409ZM219.498 39.4134C220.245 36.9756 221.533 34.987 223.327 33.5435C225.239 32.0086 227.515 31.2251 230.115 31.2251C232.716 31.2251 234.841 31.9768 236.667 33.4839C238.37 34.8997 239.627 36.8842 240.374 39.4134H219.498Z" fill="white"/>
<path d="M162.137 40.5866L156.676 39.127C154.977 38.6858 153.764 38.097 153.068 37.3814C152.393 36.6852 152.072 35.878 152.096 34.884C152.116 34.0289 152.349 33.313 152.811 32.6887C153.27 32.0682 153.93 31.5911 154.779 31.2649C155.597 30.9508 156.565 30.7959 157.652 30.7999C157.723 30.7999 157.794 30.7999 157.869 30.7999C161.742 30.8196 162.591 34.4026 162.73 35.7548L162.797 36.3393H170.435C170.435 35.0429 169.819 31.7938 168.752 30.092C166.156 25.968 160.402 24.5125 158.023 24.4568C157.881 24.4568 157.739 24.4528 157.597 24.4489C155.15 24.4369 152.942 24.8346 151.033 25.6339C148.994 26.485 147.374 27.7337 146.212 29.3443C145.046 30.9628 144.43 32.8835 144.379 35.0948C144.315 37.7153 145.102 39.9263 146.718 41.6602C148.31 43.3741 150.757 44.6708 153.993 45.5175L159.446 46.9413C161.169 47.4264 162.362 48.0032 162.998 48.6552C163.611 49.2838 163.899 50.087 163.872 51.1489C163.852 52.0157 163.599 52.7353 163.105 53.3439C162.607 53.9564 161.892 54.4254 160.979 54.7436C160.106 55.046 159.043 55.1932 157.814 55.1892C157.719 55.1892 157.624 55.1892 157.526 55.1852C155.514 55.1373 153.953 54.672 152.878 53.8092C151.701 52.8628 151.096 52.1669 150.832 50.7669L150.721 50.1108L143.122 49.9278C143.122 51.1328 144.102 54.3779 145.205 56.0045C146.351 57.6866 147.971 59.0348 150.014 60.005C152.045 60.9714 154.522 61.4923 157.372 61.5599C157.518 61.5599 157.66 61.5639 157.806 61.5679C160.315 61.5797 162.599 61.1662 164.603 60.3391C166.733 59.4563 168.447 58.1797 169.692 56.5451C170.949 54.8948 171.609 52.9424 171.664 50.7073C171.728 48.0868 171.012 45.9471 169.546 44.3486C168.1 42.7699 165.61 41.505 162.145 40.5866H162.137Z" fill="white"/>
<path d="M191.683 31.3485C193.955 31.3485 195.958 31.8614 197.574 32.8516C199.218 33.8459 200.566 35.4086 201.613 37.4249L201.704 37.6356H209.18L209.03 37.1545C207.714 33.15 205.561 29.9923 202.628 27.7932C199.696 25.5663 196.199 24.4528 192.192 24.4528C189.652 24.4528 187.229 24.9658 184.985 25.956C182.74 26.9502 180.709 28.4255 178.915 30.3502C177.299 32.0962 176.042 34.0844 175.205 36.2198C174.367 38.3555 173.948 40.6739 173.948 43.1118C173.948 45.5493 174.426 47.8359 175.323 50.1228C176.252 52.4094 177.536 54.4254 179.152 56.1436C180.855 57.9488 182.799 59.305 184.894 60.2077C187.016 61.1103 189.379 61.5639 191.983 61.5639C196.081 61.5639 199.641 60.4502 202.51 58.283C205.383 56.1155 207.564 52.8667 208.998 48.683L209.176 48.1701H201.668L201.637 48.2895C200.708 50.3055 199.364 51.8725 197.689 52.9859C196.014 54.0675 194.129 54.6402 192.038 54.6402C188.956 54.6402 186.324 53.5268 184.262 51.3275C182.167 49.1008 181.12 46.301 181.12 42.9923C181.12 39.6837 182.167 36.912 184.202 34.6849C186.238 32.4579 188.747 31.3445 191.679 31.3445L191.683 31.3485Z" fill="white"/>
<path d="M267.216 24.7996C258.787 24.7996 251.932 31.9459 251.932 40.7304V60.8766H259.44V40.7304C259.44 36.1133 262.929 32.3554 267.216 32.3554C271.504 32.3554 274.993 36.1133 274.993 40.7304V60.8766H282.501V40.7304C282.501 31.9459 275.645 24.7996 267.216 24.7996Z" fill="white"/>
<path d="M400.91 13.7994H392.35L381.591 30.6369L370.83 13.7994H362.271L377.31 37.3338L362.271 60.8643H370.83L381.591 44.0267L392.35 60.8643H400.91L385.87 37.3338L400.91 13.7994Z" fill="white"/>
<path d="M315.896 29.301C314.37 27.8854 312.726 26.8037 310.96 26.0521C308.958 25.2091 306.713 24.7597 304.35 24.7597C301.687 24.7597 299.296 25.213 297.231 26.084C295.138 26.9549 293.225 28.3427 291.458 30.1762C289.843 31.8623 288.617 33.8187 287.753 36.014C286.885 38.2129 286.47 40.5872 286.47 43.025C286.47 48.2901 288.234 52.7479 291.673 56.2673C295.144 59.7907 299.539 61.5645 304.74 61.5645C306.985 61.5645 309.107 61.1112 311.083 60.2721C312.787 59.5204 314.402 58.4666 315.836 57.0826V60.8446H323.625V13.8316H315.899L315.896 29.301ZM312.787 51.5151C310.541 53.802 307.941 54.9472 305.04 54.9472C301.839 54.9472 299.09 53.802 296.905 51.5151C294.691 49.2285 293.586 46.3694 293.586 43.029C293.586 39.6883 294.691 37.0996 296.905 34.8725C299.118 32.6455 301.807 31.5321 304.917 31.5321C308.027 31.5321 310.602 32.7053 312.812 35.0237C315.026 37.3421 316.134 40.2015 316.134 43.4505C316.166 46.5204 315.026 49.2285 312.781 51.5151H312.787Z" fill="white"/>
<path d="M116.938 13.8036L98.8916 60.8683H106.878L112.627 45.7051H129.757L135.337 60.8683H143.754L125.707 13.8036H116.935H116.938ZM115.002 39.4377L121.321 22.7672L127.454 39.4377H115.002Z" fill="white"/>
<path d="M329.172 60.8723H359.587V53.8891H336.503V40.4675H352.253V34.2041H336.503V20.7826H359.587V13.7994H329.172V60.8723Z" fill="white"/>
</g>
</g>
<defs>
<clipPath id="clip0_27_23191">
<rect width="400.909" height="63" fill="white"/>
</clipPath>
</defs>
</svg>
