<svg width="237" height="63" viewBox="0 0 237 63" fill="none" xmlns="http://www.w3.org/2000/svg">
<g opacity="0.8" clip-path="url(#clip0_27_23029)">
<path fill-rule="evenodd" clip-rule="evenodd" d="M62.4517 31.2259C62.4517 48.4714 48.447 62.4517 31.1714 62.4517C14.7813 62.4517 1.33538 49.8679 0 33.8506H41.3454V28.601H0C1.33538 12.5838 14.7813 0 31.1714 0C48.447 0 62.4517 13.9803 62.4517 31.2259ZM178.419 56.7942C189.258 56.7942 196.367 50.9528 196.367 42.155C196.367 33.9907 191.018 30.1197 182.924 28.7824L175.745 27.5859C170.256 26.671 166.595 24.2779 166.595 18.9993C166.595 13.6503 170.678 9.56811 178.419 9.56811C185.95 9.56811 189.821 13.3687 190.244 18.7881H195.663C195.241 11.6092 189.751 5.20441 178.49 5.20441C167.369 5.20441 161.247 11.4684 161.247 19.2105C161.247 27.4451 166.806 31.2458 174.408 32.5127L181.657 33.6388C187.71 34.6945 191.088 37.1579 191.088 42.3661C191.088 48.4894 186.091 52.4308 178.49 52.4308C170.607 52.4308 165.68 48.6302 165.258 42.155H159.909C160.332 50.6009 166.806 56.7942 178.419 56.7942ZM98.515 55.8091H78.8079V6.26016H97.8112C106.187 6.26016 112.028 11.1869 112.028 19.0697C112.028 24.7706 108.791 28.5712 103.583 29.8381V30.0493C109.776 31.2458 113.577 35.4687 113.577 42.0846C113.577 50.6009 107.313 55.8091 98.515 55.8091ZM97.1074 28.0082C103.09 28.0082 106.75 24.7706 106.75 19.7031V18.9993C106.75 13.9318 103.09 10.7646 97.1074 10.7646H84.0868V28.0082H97.1074ZM97.7408 51.3046C104.287 51.3046 108.298 47.7152 108.298 42.2254V41.5215C108.298 35.8206 104.216 32.3719 97.6704 32.3719H84.0868V51.3046H97.7408ZM156.204 55.8091H150.573L146.35 42.3661H126.643L122.42 55.8091H117.071L133.33 6.26016H139.734L156.204 55.8091ZM136.778 11.6796H136.356L128.051 37.9321H145.013L136.778 11.6796ZM204.295 55.8091V6.26016H236.108V10.835H209.574V27.8675H233.997V32.3719H209.574V51.2343H236.108V55.8091H204.295Z" fill="white"/>
</g>
<defs>
<clipPath id="clip0_27_23029">
<rect width="236.108" height="63" fill="white"/>
</clipPath>
</defs>
</svg>
