<svg width="203" height="63" viewBox="0 0 203 63" fill="none" xmlns="http://www.w3.org/2000/svg">
<g opacity="0.8" clip-path="url(#clip0_27_23175)">
<mask id="mask0_27_23175" style="mask-type:luminance" maskUnits="userSpaceOnUse" x="0" y="0" width="203" height="63">
<path d="M0 0H202.781V63H0V0Z" fill="white"/>
</mask>
<g mask="url(#mask0_27_23175)">
<path d="M79.4828 31.6457C81.0085 30.7794 82.2292 29.7006 83.119 28.4288C84.1303 26.991 84.6653 25.2724 84.6488 23.5148C84.6488 20.1246 83.3809 17.4766 80.8825 15.6476C78.4137 13.8364 75.0176 12.9209 70.7848 12.9209H55.4798V52.1994H71.3971C75.8544 52.1994 79.4237 51.1639 82.0047 49.1183C84.6054 47.0551 85.9265 44.1669 85.9265 40.5307C85.9265 38.3158 85.3043 36.412 84.0818 34.8705C82.9852 33.4924 81.4397 32.4096 79.4828 31.6457ZM63.7623 20.0005H70.1194C72.1137 20.0005 73.6179 20.3864 74.5963 21.1483C75.561 21.8964 76.0335 22.8848 76.0335 24.1605C76.0335 25.4402 75.561 26.4758 74.5963 27.2298C73.6179 27.9897 72.1137 28.3756 70.1194 28.3756H63.7623V20.0005ZM75.7303 43.7889C74.6278 44.6729 72.9445 45.1198 70.7297 45.1198H63.7623V35.5084H70.7317C72.9445 35.5084 74.6298 35.9415 75.7362 36.7881C76.8328 37.6346 77.3644 38.7509 77.3644 40.2058C77.3644 41.7375 76.8308 42.9089 75.7303 43.7889ZM97.1188 22.8277H88.7792V52.1975H97.1169L97.1188 22.8277ZM179.474 27.2475C178.139 25.6648 176.456 24.4116 174.558 23.5856C172.616 22.7253 170.433 22.2882 168.073 22.2882C165.179 22.2882 162.568 22.9458 160.31 24.2412C158.077 25.5122 156.232 27.3676 154.974 29.608C153.693 31.8721 153.045 34.4945 153.045 37.4063C153.045 40.32 153.675 43.1156 154.915 45.4132C156.127 47.6832 157.975 49.5508 160.231 50.7878C162.509 52.0459 165.184 52.6838 168.185 52.6838C171.866 52.6838 174.991 51.7584 177.477 49.9295C179.869 48.1714 181.513 45.6927 182.411 42.586H174.016C173.575 43.6433 172.953 44.543 172.061 45.1769C171.008 45.925 169.648 46.303 168.017 46.303C166.604 46.303 165.391 45.9605 164.415 45.2832C163.436 44.604 162.688 43.6039 162.196 42.3025C161.881 41.4475 161.671 40.5578 161.568 39.6526H182.557L182.598 39.3927C182.972 37.0243 182.878 34.7799 182.314 32.7226C181.776 30.7125 180.807 28.8435 179.474 27.2455V27.2475ZM161.702 34.2169C161.829 33.6084 162.003 33.0107 162.223 32.4293C162.735 31.1102 163.474 30.0963 164.421 29.419C165.364 28.7418 166.537 28.4012 167.907 28.4012C169.626 28.4012 171.038 28.9583 172.101 30.0549C173.111 31.0984 173.682 32.5238 173.804 34.2149L161.702 34.2169ZM97.2921 12.9209H88.6059V20.0005H97.2921V12.9209ZM142.951 26.1608C142.011 25.0132 140.837 24.0801 139.506 23.4242C137.951 22.6702 136.13 22.2882 134.094 22.2882C131.603 22.2882 129.369 22.9044 127.459 24.1133C125.55 25.324 124.034 27.0329 122.961 29.1907C121.888 31.3445 121.344 33.8724 121.344 36.7074C121.344 39.5424 121.915 41.9226 123.045 44.0902C124.177 46.2656 125.746 47.9981 127.709 49.2424C129.674 50.4886 131.916 51.1225 134.373 51.1225C136.228 51.1225 137.923 50.7209 139.408 49.9275C140.552 49.3247 141.552 48.4819 142.341 47.4567V50.654C142.341 52.6365 141.821 54.1583 140.798 55.1723C139.77 56.1862 138.207 56.698 136.151 56.698C134.379 56.698 132.987 56.2964 132.013 55.503C131.216 54.8533 130.519 54.0028 130.357 52.1994H122.317C122.392 54.7234 123.132 56.4224 124.179 57.9128C125.351 59.5803 127.001 60.8856 129.087 61.7873C131.151 62.6771 133.549 63.1299 136.206 63.1299C140.672 63.1299 144.225 62.0078 146.769 59.7968C149.328 57.5741 150.624 54.4615 150.624 50.5477V22.8277H142.953L142.951 26.1608ZM141.485 40.6094C141.001 41.6502 140.231 42.5313 139.264 43.1491C138.319 43.7397 137.177 44.0429 135.874 44.0429C133.984 44.0429 132.517 43.3991 131.385 42.0781C130.255 40.761 129.682 38.9537 129.682 36.7054C129.682 34.4571 130.253 32.6498 131.383 31.3327C132.503 30.0293 134.013 29.3679 135.872 29.3679C137.732 29.3679 139.374 30.0372 140.53 31.3622C141.695 32.699 142.286 34.5142 142.286 36.7566C142.286 38.2115 142.016 39.5049 141.485 40.6074V40.6094ZM202.786 29.8541V22.8296H196.767V12.9209H188.485V22.8296H183.344V29.8541H188.485V41.3516C188.485 47.7442 189.745 52.4416 197.592 52.2959L202.52 52.1975V45.6159H200.075C196.586 45.6159 196.781 43.5822 196.781 39.8042L196.767 29.8561L202.786 29.8541ZM119.318 29.8541V22.8296H113.3V12.9209H105.017V22.8296H99.8751V29.8541H105.014V41.3516C105.014 47.7442 106.274 52.4416 114.123 52.2959L119.049 52.1975V45.6159H116.609C113.121 45.6159 113.314 43.5822 113.314 39.8042L113.3 29.8561L119.318 29.8541ZM20.7904 20.0005H33.2979L46.0928 32.7128C46.9255 33.5396 46.9295 34.8863 46.1006 35.7171L29.6911 52.2093H16.8096L20.7057 48.4214L35.0067 34.211L20.8869 19.9986" fill="white"/>
<path d="M25.9284 34.1775H13.4249L0.627991 21.4653C0.429963 21.2687 0.272651 21.0349 0.165062 20.7775C0.0574716 20.52 0.00171532 20.2438 0.000983854 19.9648C0.000252392 19.6857 0.0545602 19.4092 0.160799 19.1512C0.267037 18.8932 0.423121 18.6586 0.620116 18.461L17.0296 1.96875H29.9131L26.019 5.75662L11.716 19.9671L25.8378 34.1775" fill="white"/>
</g>
</g>
<defs>
<clipPath id="clip0_27_23175">
<rect width="202.781" height="63" fill="white"/>
</clipPath>
</defs>
</svg>
