<svg width="195" height="63" viewBox="0 0 195 63" fill="none" xmlns="http://www.w3.org/2000/svg">
<g opacity="0.8">
<path d="M-0.00488281 48.4903C-0.00488281 46.761 -0.00488281 45.7187 -0.00488281 44.6764C-0.00111866 31.2033 -0.00488281 17.7304 0.00640961 4.25754C0.00829169 0.30242 0.281193 0.00944851 4.08675 0.00757049C22.373 -0.00369761 40.6592 -0.00181961 58.9453 0.00944851C62.8695 0.0113265 62.751 0.298664 63.2234 4.12982C63.7881 8.70468 62 11.3038 58.0702 13.4448C49.9568 17.8619 43.0324 23.5485 38.3423 31.8682C34.6817 38.3586 28.9866 41.9268 20.9671 41.4835C14.7901 41.1418 9.07612 43.4104 3.73102 46.4677C2.74106 47.0351 1.72474 47.5572 -0.00111866 48.4923L-0.00488281 48.4903Z" fill="white"/>
<path d="M62.8882 14.5961C62.9938 15.9802 63.1254 16.891 63.1254 17.8037C63.1386 31.4888 63.1442 45.1757 63.131 58.8609C63.1274 62.7692 62.8922 62.9945 58.9436 62.9945C40.7627 63.0021 22.5819 63.0021 4.40104 62.9925C0.141897 62.9909 -0.0406641 62.8313 0.00826977 58.4328C0.0854349 51.5011 -0.887598 53.567 5.11808 50.6502C9.53907 48.5039 14.2029 47.7677 19.0793 48.6615C19.7061 48.776 20.3365 48.8756 20.9689 48.9637C34.4578 50.8382 40.3788 47.5348 44.6773 34.6478C47.8035 25.2745 54.656 19.77 62.8866 14.5961H62.8882Z" fill="white"/>
<path d="M85.3745 31.88C85.3745 27.72 86.2745 24.02 88.0745 20.78C89.8745 17.5 92.3745 14.96 95.5745 13.16C98.8145 11.32 102.475 10.4 106.555 10.4C111.555 10.4 115.835 11.72 119.395 14.36C122.955 17 125.335 20.6 126.535 25.16H115.255C114.415 23.4 113.215 22.06 111.655 21.14C110.135 20.22 108.395 19.76 106.435 19.76C103.275 19.76 100.715 20.86 98.7545 23.06C96.7945 25.26 95.8145 28.2 95.8145 31.88C95.8145 35.56 96.7945 38.5 98.7545 40.7C100.715 42.9 103.275 44 106.435 44C108.395 44 110.135 43.54 111.655 42.62C113.215 41.7 114.415 40.36 115.255 38.6H126.535C125.335 43.16 122.955 46.76 119.395 49.4C115.835 52 111.555 53.3 106.555 53.3C102.475 53.3 98.8145 52.4 95.5745 50.6C92.3745 48.76 89.8745 46.22 88.0745 42.98C86.2745 39.74 85.3745 36.04 85.3745 31.88ZM143.078 45.08H156.518V53H132.818V10.88H143.078V45.08ZM176.651 53.42C173.571 53.42 170.811 52.92 168.371 51.92C165.931 50.92 163.971 49.44 162.491 47.48C161.051 45.52 160.291 43.16 160.211 40.4H171.131C171.291 41.96 171.831 43.16 172.751 44C173.671 44.8 174.871 45.2 176.351 45.2C177.871 45.2 179.071 44.86 179.951 44.18C180.831 43.46 181.271 42.48 181.271 41.24C181.271 40.2 180.911 39.34 180.191 38.66C179.511 37.98 178.651 37.42 177.611 36.98C176.611 36.54 175.171 36.04 173.291 35.48C170.571 34.64 168.351 33.8 166.631 32.96C164.911 32.12 163.431 30.88 162.191 29.24C160.951 27.6 160.331 25.46 160.331 22.82C160.331 18.9 161.751 15.84 164.591 13.64C167.431 11.4 171.131 10.28 175.691 10.28C180.331 10.28 184.071 11.4 186.911 13.64C189.751 15.84 191.271 18.92 191.471 22.88H180.371C180.291 21.52 179.791 20.46 178.871 19.7C177.951 18.9 176.771 18.5 175.331 18.5C174.091 18.5 173.091 18.84 172.331 19.52C171.571 20.16 171.191 21.1 171.191 22.34C171.191 23.7 171.831 24.76 173.111 25.52C174.391 26.28 176.391 27.1 179.111 27.98C181.831 28.9 184.031 29.78 185.711 30.62C187.431 31.46 188.911 32.68 190.151 34.28C191.391 35.88 192.011 37.94 192.011 40.46C192.011 42.86 191.391 45.04 190.151 47C188.951 48.96 187.191 50.52 184.871 51.68C182.551 52.84 179.811 53.42 176.651 53.42Z" fill="white"/>
</g>
</svg>
