<svg width="240" height="63" viewBox="0 0 240 63" fill="none" xmlns="http://www.w3.org/2000/svg">
<g opacity="0.8" clip-path="url(#clip0_27_23056)">
<path d="M122.4 41.467C121.07 40.8998 119.861 40.0823 118.84 39.0589C117.828 38.028 117.013 36.8215 116.434 35.4986C115.711 33.7942 115.421 31.937 115.592 30.0932C115.763 28.2495 116.389 26.477 117.413 24.9347C118.438 23.3923 119.829 22.1284 121.462 21.256C123.095 20.3837 124.92 19.9304 126.771 19.9367C128.273 19.9383 129.761 20.2348 131.149 20.8094C132.468 21.3873 133.67 22.2026 134.695 23.2148C135.715 24.2294 136.523 25.4365 137.073 26.7662C137.666 28.1471 137.971 29.6341 137.971 31.1369C137.971 32.6396 137.666 34.1266 137.073 35.5076C136.51 36.8344 135.701 38.0427 134.689 39.0688C133.659 40.0819 132.453 40.898 131.129 41.4769C129.74 42.0436 128.254 42.3354 126.754 42.3362C125.258 42.3389 123.777 42.0434 122.396 41.467M120.796 16.9911C117.108 18.543 114.175 21.4786 112.627 25.168C111.836 27.06 111.429 29.0902 111.429 31.1409C111.429 33.1916 111.836 35.2218 112.627 37.1138C114.179 40.805 117.115 43.7414 120.806 45.2934C122.698 46.0849 124.728 46.4925 126.778 46.4925C128.828 46.4925 130.858 46.0849 132.749 45.2934C136.442 43.7433 139.379 40.8063 140.929 37.1138C141.719 35.2227 142.126 33.1936 142.126 31.1441C142.126 29.0945 141.719 27.0654 140.929 25.1743C139.376 21.4835 136.44 18.5474 132.749 16.9947C130.857 16.2085 128.828 15.8037 126.779 15.8037C124.73 15.8037 122.701 16.2085 120.808 16.9947M88.1436 16.9857C86.3207 17.7662 84.6605 18.8822 83.2494 20.2755C81.8531 21.681 80.7383 23.3404 79.9649 25.1644C79.1682 27.0565 78.7578 29.0888 78.7578 31.1418C78.7578 33.1948 79.1682 35.2271 79.9649 37.1192C80.7385 38.9408 81.8523 40.5983 83.2467 42.0027C84.654 43.3976 86.3116 44.5146 88.1329 45.2952C90.0267 46.0846 92.0585 46.49 94.1103 46.488C98.1761 46.4894 102.077 44.8799 104.959 42.0117C106.359 40.6012 107.478 38.9368 108.255 37.1075C108.422 36.7093 108.576 36.2985 108.712 35.8743H104.249C103.695 37.058 102.944 38.1394 102.028 39.0724C101.001 40.0872 99.7952 40.9036 98.4715 41.4805C97.0814 42.0472 95.5945 42.3391 94.0932 42.3398C92.6217 42.3452 91.1638 42.0583 89.804 41.4958C88.4443 40.9332 87.2099 40.1061 86.1725 39.0625C85.161 38.0311 84.3459 36.824 83.7671 35.5004C82.6189 32.7017 82.6228 29.5628 83.7779 26.7671C84.6351 24.7362 86.074 23.0044 87.9134 21.7896C89.7528 20.5748 91.9104 19.9313 94.1148 19.9402C95.6178 19.9416 97.1058 20.24 98.4931 20.8184C99.8131 21.398 101.018 22.211 102.049 23.2184C102.968 24.1499 103.719 25.2346 104.266 26.4237H108.719C108.586 25.9976 108.43 25.5797 108.27 25.177C106.713 21.4894 103.778 18.5548 100.09 16.9974C98.1986 16.2114 96.1705 15.8061 94.1219 15.8046C92.0734 15.803 90.0447 16.2053 88.1517 16.9884M146.757 46.4907H150.903V15.7983H146.757V46.4907ZM197.953 26.6197C197.943 25.6512 198.124 24.6903 198.487 23.7925C198.851 22.8946 199.388 22.0778 200.069 21.3892C200.75 20.7005 201.561 20.1539 202.455 19.7808C203.349 19.4076 204.307 19.2155 205.276 19.2155C206.244 19.2155 207.203 19.4076 208.097 19.7808C208.991 20.1539 209.802 20.7005 210.483 21.3892C211.164 22.0778 211.701 22.8946 212.065 23.7925C212.428 24.6903 212.609 25.6512 212.599 26.6197C212.577 28.5477 211.796 30.3894 210.425 31.7453C209.054 33.1011 207.204 33.8615 205.276 33.8615C203.348 33.8615 201.498 33.1011 200.127 31.7453C198.756 30.3894 197.975 28.5477 197.953 26.6197ZM194.227 26.6781C194.227 32.6681 199.171 37.3547 205.471 37.3547H207.973L203.07 46.6219H207.24L214.845 32.0443C215.791 30.368 216.314 28.4856 216.366 26.5612C216.289 23.665 215.08 20.9142 213 18.8982C210.919 16.8822 208.131 15.7614 205.234 15.7761C202.337 15.7908 199.561 16.9398 197.5 18.9768C195.44 21.0138 194.26 23.7768 194.212 26.6736M223.515 37.4014C223.543 35.7241 224.229 34.125 225.425 32.9487C226.622 31.7725 228.232 31.1133 229.91 31.1133C231.587 31.1133 233.198 31.7725 234.394 32.9487C235.59 34.125 236.276 35.7241 236.304 37.4014C236.304 39.0974 235.63 40.7238 234.431 41.923C233.232 43.1222 231.606 43.7959 229.91 43.7959C228.214 43.7959 226.587 43.1222 225.388 41.923C224.189 40.7238 223.515 39.0974 223.515 37.4014ZM225.645 23.3586C225.646 22.2331 226.086 21.1525 226.872 20.3467C227.658 19.5409 228.727 19.0736 229.852 19.0441C230.996 19.0441 232.094 19.4987 232.903 20.3078C233.712 21.1169 234.167 22.2143 234.167 23.3586C234.167 24.5029 233.712 25.6003 232.903 26.4094C232.094 27.2186 230.996 27.6731 229.852 27.6731C228.727 27.6436 227.658 27.1763 226.872 26.3705C226.086 25.5647 225.646 24.4841 225.645 23.3586ZM222.202 23.3586C222.182 25.0323 222.707 26.667 223.699 28.0156L224.552 29.1544L223.463 30.0776C222.395 30.9747 221.536 32.0958 220.949 33.3614C220.362 34.627 220.06 36.0063 220.065 37.4014C220.065 40.0118 221.102 42.5153 222.948 44.3611C224.794 46.207 227.297 47.2439 229.908 47.2439C232.518 47.2439 235.022 46.207 236.868 44.3611C238.713 42.5153 239.75 40.0118 239.75 37.4014C239.758 35.9911 239.452 34.5968 238.855 33.3192C238.257 32.0417 237.383 30.9129 236.296 30.0146L235.185 29.0807L236.077 27.9329C237.09 26.6249 237.632 25.013 237.614 23.3586C237.592 21.3296 236.77 19.3912 235.328 17.9642C233.885 16.5372 231.938 15.7368 229.909 15.7368C227.88 15.7368 225.933 16.5372 224.49 17.9642C223.048 19.3912 222.227 21.3296 222.205 23.3586M184.266 15.7983L184.26 39.6045C184.295 39.8863 184.269 40.1721 184.186 40.4435C184.103 40.7148 183.963 40.9656 183.777 41.1796C183.59 41.3936 183.361 41.5661 183.104 41.6857C182.846 41.8054 182.567 41.8696 182.283 41.8742C181.802 41.8476 181.337 41.6893 180.94 41.4167C180.542 41.144 180.227 40.7675 180.029 40.3281L170.559 19.9402C170.066 18.7072 169.212 17.652 168.109 16.9129C167.005 16.1738 165.704 15.7853 164.377 15.7983C162.832 15.7791 161.33 16.2985 160.127 17.267C160.072 17.3078 160.019 17.3513 159.968 17.3974C159.337 17.9165 158.829 18.5698 158.482 19.3098C158.135 20.0498 157.958 20.8578 157.962 21.675V46.4835H162.355V22.3177C162.341 22.0421 162.384 21.7666 162.479 21.5079C162.575 21.2491 162.723 21.0126 162.913 20.8127C163.103 20.6128 163.332 20.4536 163.586 20.3449C163.839 20.2361 164.112 20.1801 164.388 20.1802C164.87 20.1988 165.336 20.3587 165.728 20.6402C166.12 20.9217 166.421 21.3122 166.592 21.7631L166.678 21.9645C168.905 26.8875 173.885 37.7151 176.8 43.457C177.78 45.3851 179.456 46.2525 182.238 46.266C183.81 46.2942 185.343 45.7782 186.578 44.8053C187.26 44.371 187.813 43.7612 188.178 43.04C188.544 42.3187 188.709 41.5125 188.656 40.7056V15.7983H184.266Z" fill="white"/>
<path d="M51.5108 0H11.4748C8.42996 0.00309743 5.51092 1.21502 3.35923 3.3694C1.20755 5.52378 -0.00071582 8.44434 5.65155e-07 11.4892V51.5108C-0.000953955 54.5557 1.20723 57.4764 3.35897 59.6309C5.51071 61.7853 8.42989 62.9971 11.4748 63H51.5108C54.5558 62.9971 57.4751 61.7853 59.627 59.6309C61.7788 57.4765 62.9872 54.5558 62.9865 51.5108V11.4892C62.9872 8.44419 61.7788 5.52349 59.627 3.36908C57.4751 1.21467 54.5558 0.0028593 51.5108 0ZM41.7879 15.7435C44.0207 15.7466 46.1613 16.6349 47.7402 18.2137C49.3192 19.7925 50.2077 21.9329 50.2111 24.1658C50.2131 25.574 49.8581 26.9598 49.1792 28.1936C48.1278 27.3374 46.9313 26.6768 45.6467 26.243C45.9876 25.6036 46.1669 24.8904 46.1689 24.1658C46.1772 23.5852 46.0701 23.0088 45.8536 22.4701C45.6372 21.9313 45.3159 21.4409 44.9083 21.0274C44.5007 20.614 44.015 20.2856 43.4794 20.0615C42.9437 19.8374 42.3689 19.722 41.7883 19.722C41.2077 19.722 40.6329 19.8374 40.0973 20.0615C39.5617 20.2856 39.076 20.614 38.6684 21.0274C38.2608 21.4409 37.9394 21.9313 37.723 22.4701C37.5066 23.0088 37.3994 23.5852 37.4077 24.1658C37.4027 24.8927 37.5831 25.6088 37.9318 26.2466C36.6471 26.6804 35.4507 27.341 34.3993 28.1972C33.7204 26.9634 33.3653 25.5776 33.3674 24.1694C33.3671 21.9355 34.254 19.7931 35.8331 18.213C37.4121 16.633 39.5541 15.7447 41.7879 15.7435ZM21.1977 47.2574C18.965 47.2543 16.8245 46.366 15.2457 44.7872C13.6669 43.2084 12.7785 41.0679 12.7755 38.8351H16.8203C16.8203 39.4105 16.9336 39.9801 17.1538 40.5117C17.374 41.0432 17.6967 41.5262 18.1035 41.933C18.5103 42.3398 18.9933 42.6625 19.5248 42.8827C20.0563 43.1028 20.626 43.2162 21.2013 43.2162C21.7767 43.2162 22.3464 43.1028 22.8779 42.8827C23.4094 42.6625 23.8924 42.3398 24.2992 41.933C24.706 41.5262 25.0287 41.0432 25.2489 40.5117C25.4691 39.9801 25.5824 39.4105 25.5824 38.8351H29.6272C29.6268 39.9416 29.4083 41.0372 28.9845 42.0593C28.5606 43.0814 27.9396 44.01 27.1568 44.7921C26.3741 45.5742 25.4449 46.1944 24.4225 46.6174C23.4 47.0404 22.3043 47.2579 21.1977 47.2574ZM21.1977 35.4285C19.2511 35.4269 17.3487 34.8481 15.731 33.7653C14.1133 32.6825 12.8531 31.1443 12.1096 29.3453C11.3661 27.5462 11.1727 25.5671 11.554 23.6582C11.9353 21.7493 12.874 19.9963 14.2516 18.6209C15.6291 17.2455 17.3835 16.3095 19.2931 15.9311C21.2026 15.5528 23.1814 15.7492 24.9792 16.4955C26.7771 17.2418 28.3133 18.5045 29.3936 20.1239C30.4739 21.7432 31.0497 23.6465 31.0483 25.5932C31.0474 26.8858 30.7918 28.1655 30.2963 29.3594C29.8007 30.5532 29.0748 31.6378 28.1601 32.5511C27.2454 33.4644 26.1597 34.1885 24.9651 34.6823C23.7705 35.176 22.4904 35.4295 21.1977 35.4285ZM41.7879 47.2574C39.8404 47.2588 37.9363 46.6826 36.3165 45.6015C34.6966 44.5204 33.4339 42.9832 32.688 41.1843C31.942 39.3853 31.7465 37.4055 32.1261 35.4954C32.5057 33.5854 33.4433 31.8308 34.8204 30.4537C36.1974 29.0767 37.952 28.139 39.8621 27.7594C41.7722 27.3799 43.752 27.5754 45.5509 28.3213C47.3498 29.0672 48.8871 30.33 49.9682 31.9498C51.0492 33.5697 51.6255 35.4738 51.6241 37.4212C51.6191 40.0284 50.5812 42.5274 48.7376 44.371C46.894 46.2145 44.3951 47.2524 41.7879 47.2574ZM47.5963 37.4212C47.5963 38.57 47.2556 39.693 46.6174 40.6482C45.9792 41.6034 45.072 42.3479 44.0107 42.7875C42.9493 43.2271 41.7814 43.3422 40.6547 43.118C39.528 42.8939 38.493 42.3407 37.6807 41.5284C36.8684 40.7161 36.3152 39.6811 36.0911 38.5544C35.8669 37.4277 35.982 36.2598 36.4216 35.1984C36.8612 34.1371 37.6057 33.2299 38.5609 32.5917C39.5161 31.9535 40.6391 31.6128 41.7879 31.6128C42.5508 31.6123 43.3063 31.7623 44.0112 32.054C44.7161 32.3457 45.3566 32.7735 45.8961 33.313C46.4356 33.8525 46.8634 34.493 47.1551 35.1979C47.4468 35.9028 47.5968 36.6583 47.5963 37.4212ZM27.0062 25.5932C27.0062 26.742 26.6655 27.865 26.0273 28.8201C25.389 29.7753 24.4819 30.5198 23.4205 30.9594C22.3592 31.3991 21.1913 31.5141 20.0646 31.29C18.9379 31.0658 17.9029 30.5127 17.0906 29.7003C16.2783 28.888 15.7251 27.8531 15.5009 26.7263C15.2768 25.5996 15.3918 24.4317 15.8315 23.3704C16.2711 22.309 17.0156 21.4019 17.9708 20.7636C18.926 20.1254 20.049 19.7847 21.1977 19.7847C22.7375 19.7871 24.2135 20.3998 25.3023 21.4886C26.3911 22.5774 27.0038 24.0534 27.0062 25.5932Z" fill="white"/>
</g>
<defs>
<clipPath id="clip0_27_23056">
<rect width="239.749" height="63" fill="white"/>
</clipPath>
</defs>
</svg>
