<svg width="231" height="63" viewBox="0 0 231 63" fill="none" xmlns="http://www.w3.org/2000/svg">
<g opacity="0.8">
<path d="M29.0219 36.3151C28.0936 36.6202 27.1016 36.7848 26.0701 36.7848C20.8446 36.7848 16.6067 32.5491 16.6067 27.3214C16.6067 26.7222 16.6637 26.1341 16.7691 25.5656L16.7866 25.4822C10.2378 29.6697 5.89453 37.0042 5.89453 45.3549C5.89453 52.3778 8.96487 58.6831 13.837 63L13.7514 62.853C13.0777 61.1258 12.6804 59.1045 12.6804 57.1403C12.6804 50.1129 17.309 44.3234 23.7503 42.4975C26.5222 41.6328 28.5852 39.2516 29.0219 36.3151ZM17.4999 37.1403C16.4157 37.1403 15.5357 36.2602 15.5357 35.1761C15.5357 34.9939 15.5357 34.6406 15.5357 34.6406C16.6418 35.1058 17.478 36.0869 18.0354 37.1403C17.8313 37.2105 17.6777 37.1403 17.4999 37.1403Z" fill="white"/>
<path d="M53.9558 0.153626C52.0223 2.06298 49.358 3.21299 46.4237 3.21299C45.0082 3.21299 43.7331 2.99791 42.4953 2.49972C38.7797 0.891033 34.8381 0 30.5322 0C13.6684 0 0 13.6706 0 30.5322C0 36.3283 1.61527 41.7491 4.42005 46.3645L4.39811 46.2657C4.09085 44.8787 3.92845 43.4368 3.92845 41.9598C3.92845 31.015 12.8015 22.1398 23.7485 22.1398C25.6073 22.1398 27.5781 22.3746 29.2834 22.853C31.0018 23.3402 32.5886 23.5663 34.4606 23.5663C45.4054 23.5663 54.2806 14.6933 54.2806 3.74629C54.2828 2.53264 54.1665 1.31241 53.9558 0.153626Z" fill="white"/>
<path d="M80.825 30.5366H69.8825V36.561H78.9727V41.1939H69.8825V51.7809H64.4287V25.5789H80.825V30.5366Z" fill="white"/>
<path d="M101.003 42.796C101.003 48.2146 96.9385 52.1364 91.4497 52.1364C85.9608 52.1364 81.9688 48.2168 81.9688 42.796C81.9688 37.3795 85.9608 33.3501 91.4497 33.3501C96.9385 33.3501 101.003 37.3795 101.003 42.796ZM87.2425 42.796C87.2425 45.5415 89.0268 47.5737 91.4497 47.5737C93.9099 47.5737 95.692 45.5415 95.692 42.796C95.692 40.0175 93.9099 37.9128 91.4497 37.9128C89.0246 37.9128 87.2425 40.0175 87.2425 42.796Z" fill="white"/>
<path d="M114.939 42.6555L120.678 51.7809H114.511L111.302 46.4347L108.129 51.7809H101.962L107.736 42.6555L102.21 33.7101H108.307L111.302 38.986L114.366 33.7101H120.428L114.939 42.6555Z" fill="white"/>
<path d="M144.627 52.1716H144.485L138.39 37.8097L132.293 52.1716H132.151L121.491 25.5789H127.48L132.579 39.6225L138.318 25.5789H138.46L144.202 39.6225L149.298 25.5789H155.287L144.627 52.1716Z" fill="white"/>
<path d="M166.906 35.7379L167.193 33.7078H171.899V51.7787H167.193L166.906 49.7815C165.98 51.0676 164.233 52.1342 161.63 52.1342C156.819 52.1342 153.573 48.1772 153.573 42.7608C153.573 37.3422 156.819 33.3479 161.63 33.3479C164.235 33.3501 165.98 34.4211 166.906 35.7379ZM158.851 42.763C158.851 45.7214 160.526 47.5737 162.914 47.5737C164.731 47.5737 165.837 46.6124 166.623 45.3264V40.1931C165.839 38.9114 164.733 37.9106 162.914 37.9106C160.526 37.9128 158.851 39.7695 158.851 42.763Z" fill="white"/>
<path d="M182.271 51.7809H177.03V24.6878H182.271V51.7809Z" fill="white"/>
<path d="M192.68 51.7809H187.439V24.6878H192.68V51.7809Z" fill="white"/>
<path d="M213.925 42.5128V44.1874H201.698C201.806 46.5071 203.23 47.8239 205.833 47.8239C207.617 47.8239 209.006 47.0404 209.79 45.9716L213.389 48.8949C211.502 51.0698 209.114 52.1386 205.725 52.1386C200.056 52.1386 196.42 48.219 196.42 42.7982C196.42 37.3817 200.129 33.3523 205.51 33.3523C211.179 33.3501 213.925 37.5573 213.925 42.5128ZM201.698 40.8712H208.756C208.684 38.8412 207.47 37.3071 205.335 37.3071C203.195 37.3071 201.806 38.8039 201.698 40.8712Z" fill="white"/>
<path d="M224.225 33.71H229.393V38.1279H224.225V44.973C224.225 46.5422 225.221 47.4333 226.718 47.4333C227.789 47.4333 228.535 47.1853 229.038 46.8978L230.355 51.0325C229.393 51.6031 228.072 52.1386 226.22 52.1386C221.8 52.1386 218.984 49.6082 218.984 45.0455V38.1279H215.738V33.71H218.984V27.7208H224.225V33.71Z" fill="white"/>
</g>
</svg>
