<svg width="285" height="63" viewBox="0 0 285 63" fill="none" xmlns="http://www.w3.org/2000/svg">
<g opacity="0.8">
<path fill-rule="evenodd" clip-rule="evenodd" d="M55.1659 6.7692C55.2259 6.83986 55.2621 6.92785 55.2692 7.02037C55.3063 7.47417 58.5986 52.4917 27.8364 62.9763C27.7439 63.0079 27.6437 63.0079 27.5512 62.9763C-3.21004 52.4917 0.0822238 7.47417 0.118468 7.02037C0.125859 6.92812 0.162042 6.84051 0.221852 6.76991C0.281661 6.69931 0.362097 6.64936 0.451812 6.62704L27.5896 0.0121119C27.6582 -0.00403729 27.7294 -0.00403729 27.798 0.0121119L54.9346 6.62704C55.0249 6.64875 55.1056 6.69853 55.1659 6.7692ZM50.1712 11.5758C50.2201 11.6331 50.2501 11.7042 50.2562 11.7793H50.2593C50.2896 12.1495 52.9826 48.9022 27.8107 57.4605C27.7368 57.4887 27.6551 57.4887 27.5812 57.4605C2.40824 48.9022 5.10226 12.1495 5.13247 11.7793C5.13832 11.7042 5.16779 11.6328 5.21665 11.5756C5.26552 11.5184 5.33126 11.4781 5.4044 11.4606L27.6072 6.05693C27.6635 6.04283 27.7222 6.04283 27.7785 6.05693L49.9835 11.4606C50.0565 11.4783 50.122 11.5187 50.1712 11.5758Z" fill="white"/>
<path d="M27.3794 14.1231L12.5747 17.7236C12.5259 17.736 12.4822 17.7634 12.4497 17.8019C12.4172 17.8404 12.3975 17.8882 12.3934 17.9384C12.3743 18.1854 10.5786 42.6875 27.3581 48.3938C27.4085 48.4099 27.4629 48.4099 27.5133 48.3938C44.2928 42.6865 42.4982 18.1854 42.4781 17.9374C42.4741 17.887 42.4546 17.8391 42.4218 17.8006C42.389 17.7622 42.3448 17.7352 42.2956 17.7236L27.492 14.1221C27.4552 14.1123 27.4162 14.1123 27.3794 14.1221" fill="white"/>
<path d="M88.6985 36.82V29.635H100.319V50.767C94.7237 51.685 90.1853 52.145 86.7031 52.145C80.4821 52.145 76.1979 50.448 73.8503 47.056C71.5419 43.664 70.3877 38.275 70.3877 30.892C70.3877 23.51 71.6006 18.183 74.0264 14.908C76.4522 11.637 80.5799 10 86.4096 10C90.0483 10 93.9805 10.42 98.2061 11.257L100.319 11.677L100.084 18.082C95.389 17.564 91.5351 17.303 88.5224 17.303C85.5489 17.303 83.4556 17.662 82.2427 18.38C81.0298 19.099 80.1299 20.436 79.5431 22.391C78.9953 24.308 78.7215 27.621 78.7215 32.329C78.7215 37 79.2888 40.271 80.4234 42.147C81.558 44.023 83.9056 44.962 87.466 44.962L92.3373 44.721V36.82H88.6985Z" fill="white"/>
<path d="M115.714 37.836C115.714 42.586 118.081 44.962 122.816 44.962C127.55 44.962 129.917 42.586 129.917 37.836V10.718H138.016V37.657C138.016 42.645 136.744 46.317 134.201 48.673C131.697 50.987 127.902 52.145 122.816 52.145C117.729 52.145 113.915 50.987 111.371 48.673C108.867 46.317 107.615 42.645 107.615 37.657V10.718H115.714V37.836Z" fill="white"/>
<path d="M142.735 51.426L151.715 10.718H167.091L176.07 51.426H167.971L166.387 44.064H152.419L150.834 51.426H142.735ZM157.994 17.544L153.945 36.879H164.861L160.811 17.544H157.994Z" fill="white"/>
<path d="M189.485 37.777V51.426H181.386V10.718H196.88C206.27 10.718 210.965 15.188 210.965 24.128C210.965 29.437 209.009 33.348 205.096 35.863L210.789 51.426H201.927L197.291 37.777H189.485ZM196.997 30.713C198.914 30.713 200.342 30.115 201.282 28.917C202.221 27.721 202.69 26.143 202.69 24.187C202.69 22.232 202.181 20.677 201.164 19.519C200.186 18.362 198.758 17.782 196.88 17.782H189.485V30.713H196.997Z" fill="white"/>
<path d="M231.218 51.426H217.779V10.718H231.218C234.662 10.718 237.498 11.098 239.728 11.857C241.959 12.573 243.68 13.792 244.893 15.509C246.145 17.184 247.006 19.178 247.475 21.495C247.945 23.769 248.179 26.743 248.179 30.415C248.179 34.085 247.964 37.138 247.534 39.573C247.104 41.968 246.282 44.123 245.069 46.037C243.895 47.913 242.174 49.291 239.904 50.169C237.635 51.008 234.74 51.426 231.218 51.426ZM239.728 35.262C239.807 33.987 239.846 32.229 239.846 29.994C239.846 27.721 239.767 25.904 239.611 24.547C239.454 23.191 239.083 21.952 238.496 20.836C237.909 19.717 237.029 18.96 235.855 18.56C234.72 18.121 233.175 17.903 231.218 17.903H225.878V44.244H231.218C234.153 44.244 236.285 43.484 237.616 41.968C238.75 40.731 239.454 38.496 239.728 35.262Z" fill="white"/>
<path d="M251.287 51.426L260.266 10.718H275.642L284.622 51.426H276.523L274.938 44.064H260.97L259.386 51.426H251.287ZM266.546 17.544L262.496 36.879H273.412L269.363 17.544H266.546Z" fill="white"/>
</g>
</svg>
