<svg width="163" height="63" viewBox="0 0 163 63" fill="none" xmlns="http://www.w3.org/2000/svg">
<g opacity="0.8" clip-path="url(#clip0_27_23164)">
<mask id="mask0_27_23164" style="mask-type:luminance" maskUnits="userSpaceOnUse" x="0" y="0" width="163" height="63">
<path d="M162.931 0H0V63H162.931V0Z" fill="white"/>
</mask>
<g mask="url(#mask0_27_23164)">
<path d="M27.0254 19.4388C27.2122 10.1874 21.9736 2.12586 19.2451 0.188381C19.2326 0.175905 18.9896 0.0450939 19.0083 0.406429C19.0083 0.412636 19.0021 0.412636 19.0021 0.418874C18.7218 17.8939 9.73919 22.6037 4.86181 29.0079C-5.97698 43.2493 3.06772 59.4971 14.7848 62.5745C14.9843 62.6245 15.5262 62.7865 16.5541 62.9981C17.0897 63.1105 17.2455 62.6555 16.8529 61.9765C15.4514 59.5406 12.9596 55.4288 12.4677 50.1458C11.3465 37.8791 26.8072 30.204 27.0254 19.4388Z" fill="white"/>
<path d="M32.9309 25.3636C32.8375 25.295 32.7069 25.3012 32.6944 25.4194C32.4452 27.6437 30.1465 32.2538 27.1191 36.5648C16.928 51.0992 22.0611 57.6903 26.0478 62.2633C26.7827 63.1105 27.1501 62.9237 27.5365 62.3194C27.8978 61.7462 28.4458 61.0172 30.8007 59.9021C31.1682 59.7277 40.0636 55.0055 41.0291 44.2527C41.9573 33.8487 35.2855 27.2697 32.9309 25.3636Z" fill="white"/>
<path d="M85.8483 22.7157V60.961H77.6443V45.5111H61.8782V60.961H53.4688V22.7157H61.8782V38.1659H77.6443V22.7157H85.8483Z" fill="white"/>
<path d="M123.778 22.7157V30.2788H119.872H111.998V60.9548H103.558V30.2788H95.8959H91.9902V22.7157H123.778Z" fill="white"/>
<path fill-rule="evenodd" clip-rule="evenodd" d="M153.653 60.9986L144.01 47.6913L134.442 60.9424L125.086 60.9548L139.27 41.4304L125.883 22.7157H135.233L162.966 60.9986H153.653Z" fill="white"/>
<path d="M146.633 31.2756L151.261 37.705L162.225 22.7095H152.924L146.633 31.2756Z" fill="white"/>
</g>
</g>
<defs>
<clipPath id="clip0_27_23164">
<rect width="162.931" height="63" fill="white"/>
</clipPath>
</defs>
</svg>
