<svg width="412" height="63" viewBox="0 0 412 63" fill="none" xmlns="http://www.w3.org/2000/svg">
<g opacity="0.8">
<path d="M97.3749 44.3058L76.0073 7.20715C71.3439 -0.518813 59.859 -0.588417 55.3348 7.55521L32.9225 46.1155C28.7463 53.2151 33.8969 62.0547 42.3189 62.0547H87.3523C95.7745 62.1243 102.108 52.9367 97.3749 44.3058Z" fill="#9F9F9F"/>
<path d="M66.5414 47.2291L65.219 44.9322C63.9661 42.7745 61.2515 38.1807 61.2515 38.1807L43.1547 6.71996C38.4913 -0.24038 27.3547 -0.866822 22.6913 7.97284L1.60143 44.445C-2.78359 52.1014 2.43668 62.0547 11.9028 62.1242H56.6578H75.7289H87.0746C75.5201 62.1939 71.8314 56.1383 66.5414 47.2291Z" fill="white"/>
<path d="M66.5415 47.0899L65.219 44.7929C63.9662 42.6353 61.2517 38.0415 61.2517 38.0415L49.5583 17.4388L32.7838 46.1155C28.6076 53.215 33.7582 62.0547 42.1803 62.0547H56.5882H75.6596H87.0746C75.4508 61.9851 71.8315 56.0687 66.5415 47.0899Z" fill="url(#paint0_linear_27_23206)"/>
<path d="M375.562 17.3292C378.694 14.4059 384.193 13.0138 392.197 13.0138H410.921V2.3645H388.787C383.497 2.3645 379.042 2.92135 375.562 4.035C372.151 5.14866 369.158 6.88872 366.583 9.32485C363.869 11.9698 361.711 15.2411 360.18 19.1389C358.649 23.1063 357.883 27.4217 357.883 31.946C357.883 36.2614 358.649 40.4376 360.18 44.2658C361.711 48.094 363.869 51.4349 366.583 54.0798C369.089 56.516 372.082 58.256 375.423 59.3697C378.834 60.4834 383.357 61.0402 388.787 61.0402H410.921V50.5301H392.197C387.952 50.5301 385.028 50.3909 383.357 50.0428C381.618 49.6948 380.017 49.138 378.694 48.3027C376.049 46.6322 374.031 44.4745 372.708 41.76C371.455 39.1151 370.829 35.7742 370.829 31.8764C370.829 25.1944 372.43 20.2526 375.562 17.3292Z" fill="white"/>
<path d="M212.62 61.1793H264.823V50.8781H225.357V36.1917H259.811V26.4472H225.357V12.805H264.823V2.43408H212.62V61.1793Z" fill="white"/>
<path d="M277.839 2.43408L302.27 31.8067L277.839 61.1793H293.639L312.919 37.9319V25.7512L293.639 2.43408H277.839Z" fill="white"/>
<path d="M337.14 2.43408L317.86 25.7512V37.9319L337.14 61.1793H352.941L328.44 31.8067L352.941 2.43408H337.14Z" fill="white"/>
<path d="M161.462 31.3891L138.005 2.43408H125.895V61.1793H138.632V21.9926L158.956 46.3539H163.898L184.222 21.7839V61.1793H196.959V2.43408H184.988L161.462 31.3891Z" fill="white"/>
</g>
<defs>
<linearGradient id="paint0_linear_27_23206" x1="26.797" y1="33.1188" x2="78.7955" y2="52.334" gradientUnits="userSpaceOnUse">
<stop stop-color="#939495" stop-opacity="0"/>
<stop offset="1" stop-color="#828282"/>
</linearGradient>
</defs>
</svg>
