<svg width="324" height="63" viewBox="0 0 324 63" fill="none" xmlns="http://www.w3.org/2000/svg">
<g opacity="0.8">
<path d="M50.5267 0L30.8703 11.289V46.5226L20.0249 52.8093L9.11321 46.5175V33.9384L20.0249 27.7075L27.041 31.7764V21.599L19.9637 17.581L0.3125 28.9975V51.5806L20.03 62.9358L39.6813 51.5806V16.3522L50.5928 10.0602L61.4993 16.3522V28.8751L50.5928 35.2233L43.5157 31.1187V41.245L50.5267 45.2884L70.3717 33.9995V11.289L50.5267 0Z" fill="white"/>
<path fill-rule="evenodd" clip-rule="evenodd" d="M165.85 48.9138H174.66V0.616954H165.85V48.9138ZM109.206 14.5829C113.382 14.5829 116.844 16.2604 119.582 19.6104C122.325 22.9604 123.692 27.116 123.692 32.0773C123.692 37.0385 122.32 41.1942 119.582 44.5441C116.839 47.8941 113.382 49.5716 109.206 49.5716C106.248 49.5716 103.678 48.6591 101.506 46.8286C99.3748 44.957 97.8096 42.433 96.8051 39.2564V61.967H87.9941V15.2356H96.8051V24.8929C97.8045 21.7163 99.3748 19.2127 101.506 17.3873C103.683 15.516 106.248 14.5829 109.206 14.5829ZM106.004 41.5409C108.395 41.5409 110.419 40.6487 112.071 38.8639C113.723 37.0385 114.549 34.7746 114.549 32.0773C114.549 29.3799 113.723 27.2027 112.071 25.4181C110.419 23.5926 108.395 22.6748 106.004 22.6748C103.347 22.6748 101.154 23.5672 99.4104 25.3518C97.6719 27.1364 96.8001 29.3748 96.8001 32.0722C96.8001 34.7695 97.6719 37.0334 99.4104 38.8588C101.149 40.6436 103.347 41.5358 106.004 41.5358V41.5409ZM126.032 32.0773C126.032 37.0385 127.75 41.1942 131.187 44.5441C134.624 47.8941 138.912 49.5716 144.047 49.5716C149.181 49.5716 153.469 47.8941 156.906 44.5441C160.343 41.1942 162.061 37.0385 162.061 32.0773C162.061 27.116 160.343 22.9604 156.906 19.6104C153.469 16.2604 149.181 14.5829 144.047 14.5829C138.912 14.5829 134.624 16.2604 131.187 19.6104C127.75 22.9604 126.032 27.116 126.032 32.0773ZM137.714 38.8639C136.016 37.0385 135.169 34.7746 135.169 32.0773C135.169 29.3799 136.016 27.2027 137.714 25.4181C139.412 23.5926 141.523 22.6748 144.047 22.6748C146.57 22.6748 148.682 23.5672 150.379 25.3518C152.077 27.1364 152.924 29.3748 152.924 32.0722C152.924 34.7695 152.077 37.0334 150.379 38.8588C148.682 40.6436 146.57 41.5358 144.047 41.5358C141.523 41.5358 139.412 40.6436 137.714 38.8588V38.8639ZM256.059 44.5441C252.623 41.1942 250.904 37.0385 250.904 32.0773C250.904 27.116 252.623 22.9604 256.059 19.6104C259.496 16.2604 263.784 14.5829 268.919 14.5829C274.053 14.5829 278.342 16.2604 281.778 19.6104C285.215 22.9604 286.933 27.116 286.933 32.0773C286.933 37.0385 285.215 41.1942 281.778 44.5441C278.342 47.8941 274.053 49.5716 268.919 49.5716C263.784 49.5716 259.501 47.8941 256.059 44.5441ZM260.037 32.0773C260.037 34.7746 260.883 37.0385 262.581 38.8639C264.279 40.6487 266.39 41.5409 268.914 41.5409C271.438 41.5409 273.549 40.6487 275.247 38.8639C276.944 37.0385 277.791 34.7746 277.791 32.0773C277.791 29.3799 276.944 27.1364 275.247 25.3569C273.549 23.5723 271.438 22.68 268.914 22.68C266.39 22.68 264.279 23.5926 262.581 25.4232C260.883 27.2078 260.037 29.4258 260.037 32.0823V32.0773ZM310.383 14.5829C314.126 14.5829 317.129 15.8882 319.388 18.4988C321.692 21.1095 322.845 24.4391 322.845 28.4825V48.9087H314.034V30.0479C314.034 27.8707 313.34 26.086 311.943 24.694C310.552 23.302 308.813 22.6035 306.722 22.6035C304.372 22.6035 302.459 23.302 300.981 24.694C299.502 26.086 298.763 27.8707 298.763 30.0479V48.9087H289.952V15.2356H298.763V23.8527C299.635 20.982 301.093 18.7181 303.138 17.066C305.228 15.414 307.64 14.588 310.383 14.588V14.5829ZM195.826 39.9346L204.831 15.2661H213.774L195.24 61.9975H186.296L190.997 50.1171L177.225 15.2661H186.755L195.826 39.9346ZM238.83 15.2356V23.6742C236.995 18.1674 232.462 15.2356 226.43 15.2356C217.323 15.2356 211.939 23.1898 211.939 31.552C211.939 39.9142 217.282 48.5213 226.43 48.5213C232.462 48.5213 236.995 44.172 238.83 38.6651V45.1252C238.83 47.8687 237.938 50.1273 236.153 51.912C234.369 53.6967 232.196 54.5889 229.627 54.5889C226.144 54.5889 223.559 52.8503 221.861 49.3677L213.963 53.5437C215.442 56.2868 217.552 58.4793 220.296 60.1364C223.039 61.7885 226.149 62.6146 229.627 62.6146C234.761 62.6146 239.049 60.9421 242.486 57.5871C245.923 54.2371 247.641 50.0815 247.641 45.1201V15.2356H238.83ZM236.286 37.9512C234.588 39.6493 232.457 40.4957 229.892 40.4957C227.327 40.4957 225.323 39.6493 223.625 37.9512C221.927 36.2125 221.081 34.0811 221.081 31.5572C221.081 29.0332 221.927 26.9222 223.625 25.2243C225.323 23.5264 227.408 22.68 229.892 22.68C232.375 22.68 234.593 23.5264 236.286 25.2243C237.984 26.8763 238.83 28.9873 238.83 31.5572C238.83 34.127 237.984 36.2583 236.286 37.9512Z" fill="white"/>
</g>
</svg>
