<svg width="408" height="63" viewBox="0 0 408 63" fill="none" xmlns="http://www.w3.org/2000/svg">
<g opacity="0.8">
<path d="M36.8311 42.6461C36.8311 39.9697 39.0008 37.8 41.6772 37.8H43.6157C46.2921 37.8 48.4618 39.9697 48.4618 42.6461V44.5846C48.4618 47.261 46.2921 49.4307 43.6157 49.4307H41.6772C39.0008 49.4307 36.8311 47.261 36.8311 44.5846V42.6461Z" fill="white"/>
<path d="M41.6772 20.3539C39.0008 20.3539 36.8311 22.5236 36.8311 25.2V27.1385C36.8311 29.8149 39.0008 31.9846 41.6772 31.9846H43.6157C46.2921 31.9846 48.4618 29.8149 48.4618 27.1385V25.2C48.4618 22.5236 46.2921 20.3539 43.6157 20.3539H41.6772Z" fill="white"/>
<path fill-rule="evenodd" clip-rule="evenodd" d="M19.3846 0C8.67879 0 0 8.67879 0 19.3846V43.6154C0 54.3213 8.67879 63 19.3846 63H43.6154C54.3213 63 63 54.3213 63 43.6154V19.3846C63 8.67879 54.3213 0 43.6154 0H19.3846ZM43.6154 7.75385H19.3846C12.9611 7.75385 7.75385 12.9611 7.75385 19.3846V43.6154C7.75385 50.0389 12.9611 55.2461 19.3846 55.2461H43.6154C50.0389 55.2461 55.2461 50.0389 55.2461 43.6154V19.3846C55.2461 12.9611 50.0389 7.75385 43.6154 7.75385Z" fill="white"/>
<path d="M124.345 47.3374C125.665 45.2206 126.342 42.7669 126.294 40.2737C126.294 37.9681 125.783 35.9773 124.774 34.3493C123.682 32.6342 122.199 31.2009 120.447 30.1668C118.163 28.8304 115.748 27.7313 113.24 26.8868C113.054 26.8268 112.889 26.767 112.747 26.7129L112.378 26.581C110.732 26.0204 109.501 25.5676 108.709 25.2348C107.984 24.9519 107.313 24.5462 106.727 24.0356C106.47 23.8115 106.264 23.5349 106.125 23.2245C105.985 22.914 105.913 22.5772 105.916 22.2366C105.9 21.7306 106.007 21.2283 106.227 20.7722C106.447 20.3161 106.774 19.9195 107.18 19.6163C107.982 18.9986 109.132 18.6839 110.594 18.6839C112.398 18.7 114.179 19.0879 115.825 19.8231C117.256 20.4352 118.589 21.2545 119.78 22.2546L125.531 15.2569C123.536 13.4809 121.256 12.0529 118.786 11.0325C116.028 9.94563 113.082 9.40886 110.117 9.45247C106.814 9.45247 104.036 10.0341 101.874 11.1824C99.7115 12.3307 98.1289 13.8448 97.1319 15.7007C96.1195 17.5926 95.5981 19.7078 95.6155 21.853C95.6155 25.6246 96.8166 28.5179 99.165 30.4577C101.767 32.5419 104.764 34.0806 107.976 34.9818C109.627 35.4413 111.243 36.0195 112.811 36.7118C113.976 37.2665 114.754 37.8213 115.186 38.4029C115.631 39.011 115.864 39.7483 115.85 40.5016C115.862 41.0607 115.73 41.6139 115.468 42.1079C115.205 42.6019 114.819 43.0202 114.348 43.3229C113.39 43.9825 112.015 44.3032 110.144 44.3032C106.411 44.3032 102.799 42.7052 99.4053 39.5511L92.9248 46.276C95.1438 48.5946 97.7963 50.4565 100.733 51.7567C103.793 53.0835 107.098 53.7576 110.435 53.7355C113.606 53.7355 116.441 53.1718 118.823 52.0566C121.079 51.0461 122.997 49.4076 124.345 47.3374Z" fill="white"/>
<path d="M262.998 42.8376L258.255 39.042C256.711 41.0796 254.569 42.5863 252.128 43.3525C249.687 44.1187 247.067 44.1065 244.632 43.3175C242.199 42.5285 240.071 41.0018 238.547 38.9497C237.022 36.8978 236.176 34.4226 236.126 31.8681C236.075 29.3136 236.824 26.807 238.265 24.6966C239.707 22.5863 241.774 20.9771 244.174 20.0929C246.574 19.2087 249.192 19.0934 251.662 19.7631C254.131 20.4326 256.331 21.8539 257.954 23.8293L265.674 17.6561C262.769 14.0805 258.82 11.4964 254.377 10.262C249.934 9.02766 245.215 9.20417 240.878 10.7671C236.538 12.33 232.795 15.2019 230.164 18.9846C227.534 22.7672 226.148 27.2732 226.199 31.8777C226.249 36.482 227.733 40.9569 230.445 44.6816C233.157 48.4062 236.962 51.1962 241.333 52.6647C245.705 54.1331 250.425 54.2071 254.84 52.8767C259.256 51.5461 263.147 48.877 265.975 45.2392L262.998 42.8376Z" fill="white"/>
<path fill-rule="evenodd" clip-rule="evenodd" d="M172.751 23.6464C172.751 26.5786 172.149 29.1899 170.949 31.4086C169.763 33.6058 167.955 35.4049 165.75 36.5805C163.474 37.8098 160.739 38.4333 157.619 38.4333H150.165V52.15H139.877V9.45H157.474C160.534 9.45 163.249 10.0706 165.547 11.2909C167.763 12.4418 169.607 14.1953 170.867 16.3488C172.137 18.5696 172.787 21.0896 172.751 23.6464ZM159.625 28.5423C160.487 28.0848 161.208 27.4004 161.709 26.5636C162.218 25.7097 162.481 24.7327 162.471 23.7393C162.485 22.7926 162.216 21.8635 161.696 21.071C161.18 20.2973 160.463 19.6762 159.625 19.272C158.724 18.8398 157.735 18.6222 156.736 18.6363H150.165V29.25H156.706C157.722 29.2611 158.726 29.0178 159.625 28.5423Z" fill="white"/>
<path d="M289.467 34.7725H305.535V26.3327H289.467V18.6363H310.01V9.45H279.178V52.15H310.475V42.9636H289.467V34.7725Z" fill="white"/>
<path d="M341.34 9.45H351.628V52.15H341.34V9.45Z" fill="white"/>
<path fill-rule="evenodd" clip-rule="evenodd" d="M403.006 41.6605C404.959 38.3706 405.989 34.616 405.986 30.7916C405.984 26.9672 404.95 23.2141 402.992 19.9267C401.003 16.6908 398.187 14.0416 394.832 12.2515C391.331 10.3753 387.412 9.41211 383.438 9.45115H367.447V52.1511H383.533C387.491 52.1898 391.394 51.2264 394.877 49.3509C398.226 47.5578 401.033 44.9025 403.006 41.6605ZM394.04 36.8244C393.066 38.5711 391.624 40.0113 389.874 40.9829C388.048 41.9911 385.991 42.5077 383.904 42.482H377.737V19.1353H383.875C385.966 19.1071 388.029 19.6237 389.86 20.6344C391.609 21.6095 393.057 23.0487 394.04 24.7929C395.057 26.6257 395.575 28.6935 395.541 30.7892C395.575 32.8972 395.057 34.9774 394.04 36.8244Z" fill="white"/>
<path fill-rule="evenodd" clip-rule="evenodd" d="M193.068 9.45H202.24L218.642 52.21H208.086L205.757 45.3831V45.3622H189.451V45.3831L187.123 52.21H176.57L193.068 9.45ZM197.623 21.4277L197.477 21.8624L192.528 36.3675H202.706L197.775 21.8624L197.623 21.4277Z" fill="white"/>
</g>
</svg>
