<svg xmlns="http://www.w3.org/2000/svg" width="207" height="217" fill="#1da2b4" xmlns:v="https://vecta.io/nano"><path d="M73.485 0c-3.976 0-7.951 1.615-10.684 4.597h-.124L3.913 67.46a14.58 14.58 0 0 0 0 19.878l58.763 62.863c2.733 2.857 6.585 4.596 10.684 4.596h35.034L50.502 92.804h57.893L79.2 61.869H50.502l52.054-55.533c2.361-2.36.621-6.336-2.733-6.336H73.485zm59.385 216.667c3.975 0 7.951-1.615 10.684-4.597h.124l58.764-62.863c5.217-5.591 5.217-14.287 0-19.878l-58.764-62.863c-2.733-2.857-6.584-4.597-10.684-4.597H97.96l57.893 61.994H97.96l29.195 30.934h28.698l-52.054 55.534c-2.361 2.36-.622 6.336 2.733 6.336h26.338z"/></svg>