<svg xmlns="http://www.w3.org/2000/svg" width="206" height="340" fill="#093c9e" xmlns:v="https://vecta.io/nano"><path d="M104.989.294l100.526 60.415a1 1 0 0 1 .485.857v48.144a1 1 0 0 1-1.524.852L102.492 47.803a1 1 0 0 0-1-.028L40.525 80.717a1 1 0 0 0-.525.88v69.849a1 1 0 0 0 .471.849l99.063 61.792a1 1 0 0 1-.057 1.73l-39.97 21.412a1 1 0 0 1-.997-.03L.475 176.793a1 1 0 0 1-.475-.851V57.096a1 1 0 0 1 .524-.88L103.998.271a1 1 0 0 1 .991.023zm-3.978 338.912L.485 278.791a1 1 0 0 1-.485-.857V229.79a1 1 0 0 1 1.524-.852l101.984 62.759a1 1 0 0 0 1 .029l60.967-32.943c.324-.174.525-.512.525-.879v-69.849a1 1 0 0 0-.471-.849l-99.063-61.792a1 1 0 0 1 .057-1.73l39.97-21.412a1 1 0 0 1 .997.03l98.035 60.405a1 1 0 0 1 .475.851v118.846a1 1 0 0 1-.524.88l-103.474 55.945a1 1 0 0 1-.991-.023z"/></svg>