<svg xmlns="http://www.w3.org/2000/svg" width="68" height="76" fill="none" xmlns:v="https://vecta.io/nano"><path d="M53.8 75.2c-.6 0-1.2-.3-1.5-.8L34 48.8a.95.95 0 0 0-1.3-.2c-.1.1-.2.1-.2.2L14.2 74.4c-.3.5-.9.8-1.5.8H.9c-.2 0-.4-.1-.5-.2a.95.95 0 0 1-.2-1.3l25.2-35.2c.4-.5.4-1.3 0-1.8L.2 1.5C.1 1.3 0 1.2 0 1 0 .5.4.1.9.1h11.8c.6 0 1.2.3 1.5.8l52.2 72.9c.1.2.2.3.2.5 0 .5-.4.9-.9 1H53.8v-.1z" fill="#dee8ff"/><path d="M58.8.1c-3.9 0-7.5 1.9-9.7 5L36.4 22.8 43.7 33 67.3 0l-8.5.1z" fill="#4274b9"/></svg>