<svg xmlns="http://www.w3.org/2000/svg" id="bm" width="222" height="267" fill="none" xmlns:v="https://vecta.io/nano"><path fill-rule="evenodd" d="M1.977 256.073h15.913v10.123H1.977v-10.123zM200.8 186.441c0 13.418-6.497 23.493-16.054 28.578-9.558 5.038-23.023 7.957-45.857 7.957H0v-6.639h138.23c21.092 0 35.216-3.39 42.184-7.203 7.675-4.19 12.853-14.313 12.853-22.787 0-13.23-8.898-20.198-15.63-24.153-3.437-2.024-14.831-7.156-44.774-7.156H80.132v-6.639h53.955c33.804 0 41.007 3.343 49.199 8.287 8.71 5.32 17.514 14.736 17.514 29.755zM139.642 82.062H91.62v5.556h48.022v-5.556zM41.714 65.019h99.811v5.555H41.714v-5.555zm34.699 17.043H16.149v5.556h60.264v-5.556zM34.463 43.88h26.318v4.802H34.463V43.88zm46.94 192.702H17.844v6.968h63.559v-6.968zm-63.559-44.397h67.561v5.791H17.844v-5.791zm36.111-20.763H31.733v5.838h22.222v-5.838zm43.785 21.186h43.691v4.991H97.74v-4.991zm44.115-21.186H66.761v5.838h75.094v-5.838zm53.672-88.465c-.047 12.9-3.907 25.518-11.158 36.205l-2.778-1.554c8.899-9.369 13.889-21.798 13.936-34.651zm0-1.365v1.318-1.318zm-1.553 44.068l-.377-.282c8.333-12.006 12.524-26.601 12.524-43.785 0-25.518-8.758-45.48-26.272-59.934S138.277-.047 107.58 0H31.215v10.687h75c26.083 0 49.341 5.791 64.077 17.844 13.7 11.205 18.738 20.81 22.787 35.264-4.096-13.136-13.7-21.61-19.68-26.601-10.452-8.804-23.446-14.925-58.851-14.925H55.65v10.405h57.627c30.179 0 41.29 3.719 51.459 11.252 12.995 9.652 21.046 21.139 21.046 37.759 0 14.972-5.274 22.975-14.078 31.261-1.035-.423-2.071-.8-3.107-1.177l.989-.518c9.557-5.273 16.148-15.395 16.148-29.613 0-15.537-8.898-25.235-17.655-30.744-8.192-5.132-15.96-8.569-49.152-8.569H76.554V49.2h41.148c29.991 0 41.338 5.32 44.774 7.439 6.733 4.143 15.631 11.299 15.631 25.047 0 8.757-5.179 19.303-12.806 23.587-2.495 1.366-5.084 2.495-7.815 3.296-11.394-2.59-23.023-3.814-34.699-3.72H71.751v10.735h49.671c26.083 0 49.67 5.367 64.077 17.844 10.876 9.275 18.785 21.516 22.74 35.216-4.049-13.135-12.429-21.139-19.633-26.601-10.922-8.286-23.446-14.971-58.851-14.924H49.718v10.405h78.767c30.179 0 41.243 3.719 51.412 11.252 12.995 9.652 20.951 21.139 20.951 37.759 0 16.007-8.05 27.683-21.139 37.335-13.371 9.84-33.804 10.17-42.09 10.17H93.832v10.404h32.722c27.401 0 45.668-2.354 61.487-14.077 14.831-11.064 22.741-25.329 22.741-43.785.141 9.887-1.978 19.68-6.215 28.625s-10.452 16.808-18.22 22.976c-14.972 12.382-41.714 17.843-68.503 17.843H31.78v10.641h86.723c32.297 0 57.533-7.015 75.612-21.046 18.126-14.03 27.213-33.757 27.213-59.133-.047-25.518-8.852-45.527-26.366-59.981-.282-.33-.612-.612-.988-.848z" fill="#fff"/></svg>