<svg xmlns="http://www.w3.org/2000/svg" xmlns:xlink="http://www.w3.org/1999/xlink" width="124" height="124" fill="none" xmlns:v="https://vecta.io/nano"><style><![CDATA[.B{fill:#fff}.C{stroke:#fff}.D{stroke-width:1.4}.E{stroke-miterlimit:10}]]></style><g clip-path="url(#A)"><path d="M61.6 123.2c34.021 0 61.6-27.579 61.6-61.6S95.621 0 61.6 0 0 27.579 0 61.6s27.579 61.6 61.6 61.6z" fill="#659aea"/><g class="B"><path d="M61.6 64.978c3.077 0 5.572-2.495 5.572-5.572s-2.495-5.572-5.572-5.572-5.572 2.495-5.572 5.572 2.495 5.572 5.572 5.572zm-35.885-18.96c2.604 0 4.714-2.111 4.714-4.715s-2.111-4.715-4.714-4.715A4.72 4.72 0 0 0 21 41.304c0 2.604 2.111 4.715 4.715 4.715zm0 41.349c2.604 0 4.714-2.111 4.714-4.715s-2.111-4.715-4.714-4.715A4.72 4.72 0 0 0 21 82.653c0 2.604 2.111 4.715 4.715 4.715zm35.776-61.061c2.604 0 4.715-2.111 4.715-4.715s-2.111-4.715-4.715-4.715-4.715 2.111-4.715 4.715 2.111 4.715 4.715 4.715z"/><use xlink:href="#B"/><path d="M97.486 87.367c2.603 0 4.715-2.111 4.715-4.715s-2.111-4.715-4.715-4.715-4.715 2.111-4.715 4.715 2.111 4.715 4.715 4.715zm-35.995 21.21c2.604 0 4.715-2.111 4.715-4.714s-2.111-4.715-4.715-4.715-4.715 2.111-4.715 4.715 2.111 4.714 4.715 4.714zM25.606 43.701v36.341z"/></g><path d="M25.606 43.701v36.341" class="C D E"/><path d="M97.594 40.271l-.109 41.311z" class="B"/><path d="M97.594 40.271l-.109 41.311" class="C D E"/><path d="M61.6 20.132l-.108 41.311z" class="B"/><path d="M61.6 20.132l-.108 41.311" class="C D E"/><path d="M58.811 60.389L28.826 80.92z" class="B"/><path d="M58.811 60.389L28.826 80.92" class="C D E"/><path d="M58.912 22.792L27.437 40.961z" class="B"/><path d="M58.912 22.792L27.437 40.961" class="C D E"/><path d="M59.125 102.021L27.653 83.853z" class="B"/><path d="M59.125 102.021L27.653 83.853" class="C D E"/><path d="M95.239 81.235L64.813 61.359z" class="B"/><path d="M95.239 81.235L64.813 61.359" class="C D E"/><path d="M95.977 41.174L64.501 23.006z" class="B"/><path d="M95.977 41.174L64.501 23.006" class="C D E"/><path d="M95.977 83.423l-31.476 18.168z" class="B"/><path d="M95.977 83.423l-31.476 18.168" class="C D E"/></g><defs><clipPath id="A"><path d="M0 0h123.2v123.2H0z" class="B"/></clipPath><path id="B" d="M97.486 46.018c2.603 0 4.715-2.111 4.715-4.715s-2.111-4.715-4.715-4.715-4.715 2.111-4.715 4.715 2.111 4.715 4.715 4.715z"/></defs></svg>