<svg xmlns="http://www.w3.org/2000/svg" width="158" height="107" fill="none" xmlns:v="https://vecta.io/nano"><path d="M97.635 44.862l15.7-15.5 26.1-26c5.5-5.4 14-4.1 17.4 2.5.7 1.4 1.1 2.9 1.1 4.5v85.8c0 5.6-4.3 10.1-9.9 10.5h-111.3c.2-.2.2-.5.3-.6l8.8-8.8c2-1.7 3.8-3.6 5.4-5.7.4-.3.7-.6 1.1-.9l11.4-11.4c1.2-1.2 1.1-1.2 2 .2l6.8 10.9c.3.5.5.8 1.1.8 3.1 0 6 0 9.1-.2 2.6.2 5.2.3 7.8.2 2.4.1 4.8 0 7.2-.2.3 0 .6.2.9.2h43.1c1.1 0 1.2-.5 1.2-1.4v-66.6c0-.5.3-.9-.3-1.2s-.8.3-1.1.6l-26.8 26.8c-5.7 5.5-11.2 11.2-16.9 16.8-.1-.3-.2-.6-.2-.9v-19.4c-.1-.1-.1-.6 0-1z" fill="#fff"/><path d="M97.535 91.262c-2.4.2-4.8.2-7.2.2-2.6.1-5.2 0-7.8-.2v-45.7c-.5.2-1 .6-1.4 1.1l-18.6 18.5-25.1 25.1c-.3.3-.8.5-.6.9s.8.3 1.2.3h11.7c.5 0 .9-.2 1.4.3-1.6 2-3.4 3.9-5.4 5.7l-8.8 8.8c-.2.2-.2.3-.3.6h-35.4c-.5 0-1.1.3-1.2-.3-.2-.6.5-.8.8-1.1l63.2-63.2 15.2-15.1c2.1-2.4 5.1-3.6 8.3-3.5 5.5.1 9.9 4.5 10.1 10 .2 3.9 0 7.5.2 11.4 0 .5-.2.9-.2 1.2v19.3c0 .3 0 .6.2.9v15.2c-.3 3.1-.3 6.4-.3 9.6z" fill="#3dd4ed"/></svg>