<svg xmlns="http://www.w3.org/2000/svg" width="169" height="84" fill="none" xmlns:v="https://vecta.io/nano"><path d="M167.819 39.364L138.534 1.766C137.771.757 136.241 0 134.968 0H0v84h136.498c1.273 0 2.289-.505 3.053-1.514l28.524-36.309c1.273-2.019 1.273-4.794-.256-6.813zM63.918 69.14H18.08V14.383h44.821v13.878H36.416v6.308h23.429v13.374H36.416v7.065h27.502V69.14zm44.312 0l-9.422-14.635-9.425 14.635H68.247L88.11 41.635l-19.353-27H89.64l9.422 13.878 9.169-13.878h20.116l-19.097 26.495 20.37 28.261H108.23v-.252z" fill="#fae95e"/></svg>