<svg xmlns="http://www.w3.org/2000/svg" width="264" height="234" fill="#ff0079" xmlns:v="https://vecta.io/nano"><path d="M161.453 128.929c-37.854-31.038-30.1-85.365-21.491-108.649C164.085.048 215.345-9.044 241.351 16.86c41.628 47.895 14.081 112.456-4.896 138.749-9.228 4.04-37.148 4.36-75.002-26.679zM31.911 14.977c40.672-19.329 75.756-2.823 88.214 7.846-12.821 24.854-3.569 67 2.791 85.402.053.142.102.282.146.422l-.146-.422c-4.448-11.742-42.352-33.776-67.683-33.226C9.79 75.986-.342 72.714.273 70.955c-.805-12.835 4.395-42 31.639-55.978zm74.175 98.871C55.068 77.641 14.701 83.892.895 91.543c4.04 22.334 22.895 73.989 65.998 101.935s53.752 33.94 53.688 33.444c16.426-22.605 14.23-89.536-14.496-113.074zm112.26 61.725c-11.556 16.806-57.698 45.372-79.325 57.555 17.03-27.59 7.834-79.139 1.107-101.465 18.942 28.825 80.507 42.105 78.218 43.91z"/></svg>