<svg xmlns="http://www.w3.org/2000/svg" width="75" height="79" fill="none" xmlns:v="https://vecta.io/nano"><path fill-rule="evenodd" d="M37.471 78.679c-11.565-.009-20.88-2.784-27.389-7.768C3.495 65.866 0 58.708 0 50.608c0-7.804 3.487-13.432 7.433-17.236 3.091-2.981 6.503-4.89 8.879-5.989a123.46 123.46 0 0 1-1.807-6.036c-.802-2.983-1.59-6.483-1.59-9.048 0-3.036.662-6.085 2.448-8.454C17.247 1.342 20.086.001 23.5.001c2.669 0 4.935.99 6.71 2.698 1.695 1.632 2.823 3.801 3.602 6.06 1.369 3.971 1.903 8.96 2.051 13.94h3.272c.148-4.979.682-9.968 2.051-13.94.78-2.259 1.908-4.428 3.602-6.06A9.44 9.44 0 0 1 51.5 0c3.414 0 6.253 1.342 8.138 3.844 1.785 2.369 2.448 5.419 2.448 8.455 0 2.564-.787 6.064-1.59 9.047a123.46 123.46 0 0 1-1.807 6.036c2.376 1.099 5.788 3.008 8.879 5.989C71.513 37.176 75 42.804 75 50.608c0 8.1-3.495 15.258-10.082 20.303-6.508 4.984-15.824 7.76-27.389 7.768h-.058 0z" fill="#633001"/><path d="M23.5 2.888c-5.001 0-7.304 3.77-7.304 8.983 0 4.143 2.674 12.442 3.773 15.673.246.727-.141 1.523-.849 1.805-4.008 1.597-15.839 7.443-15.839 20.833 0 14.104 12.022 24.738 34.192 24.756h.053c22.17-.017 34.192-10.651 34.192-24.756 0-13.39-11.83-19.237-15.839-20.833-.345-.136-.624-.399-.782-.734s-.182-.718-.067-1.071c1.098-3.231 3.773-11.529 3.773-15.673 0-5.213-2.303-8.983-7.304-8.983-7.2 0-8.995 10.302-9.124 21.36a1.34 1.34 0 0 1-1.33 1.337h-7.093c-.73 0-1.321-.599-1.33-1.337-.128-11.058-1.923-21.36-9.123-21.36h0z" fill="#d1884f"/><path d="M37.527 70.418c-16.289 0-34.218-8.808-34.245-20.211v.053c0 14.117 12.042 24.756 34.245 24.756S71.77 64.377 71.77 50.26v-.053c-.027 11.402-17.954 20.211-34.243 20.211h0z" fill="#fedc90"/><path d="M28.476 46.705c0 3.85-1.801 5.856-4.023 5.856s-4.022-2.005-4.022-5.856 1.801-5.856 4.023-5.856 4.022 2.005 4.022 5.856zm26.146 0c0 3.85-1.801 5.856-4.023 5.856s-4.021-2.005-4.021-5.856 1.8-5.856 4.022-5.856 4.023 2.005 4.023 5.856h-.001z" fill="#633001"/></svg>