<svg xmlns="http://www.w3.org/2000/svg" width="158" height="250" fill="none" xmlns:v="https://vecta.io/nano"><path d="M107.007 76.896c0-35.869-17.475-66.761-30.785-76.787 0 0-1.024-.565-.918.883-1.094 69.303-36.505 88.085-55.958 113.363-44.907 58.394-3.177 122.401 39.4 134.228 23.725 6.637-5.507-11.721-9.285-50.45-4.625-46.743 57.546-82.472 57.546-121.236z" fill="#fff"/><path d="M127.414 100.515c-.283-.177-.671-.318-.918.141-.742 8.72-9.639 27.361-20.936 44.519-38.306 58.111-16.487 86.143-4.201 101.218 7.131 8.721 0 0 17.793-8.932a80.34 80.34 0 0 0 38.376-62.065c3.496-41.307-21.288-67.326-30.114-74.881z" fill="#2ca6e0"/></svg>