<svg xmlns="http://www.w3.org/2000/svg" width="63" height="80" fill="none" xmlns:v="https://vecta.io/nano"><path fill-rule="evenodd" d="M.521 77.38C0 76.353 0 75.008 0 72.32V7.68c0-2.688 0-4.032.521-5.058C.98 1.718 1.711.983 2.612.523 3.636 0 4.976 0 7.656 0h25.04c6.674 0 10.011 0 12.749.737C52.874 2.733 58.679 8.555 60.67 16.01c.732 2.747.732 6.095.732 12.79 0 4.358-1.968 5.957-3.646 7.317-1.247 1.012-2.334 1.893-2.334 3.685 0 1.765 1.267 2.647 2.735 3.67 2.028 1.412 4.441 3.092 4.441 7.73 0 6.683 0 10.027-.731 12.768-1.989 7.46-7.796 13.287-15.23 15.283-2.733.735-6.064.737-12.728.738L7.657 80c-2.68.002-4.02.002-5.044-.522-.901-.46-1.633-1.195-2.092-2.098zM35.69 26.233c1.502-2.367 2.803-4.415 2.803-7.033 0-5.302-4.293-9.6-9.588-9.6s-9.59 4.5-9.59 9.6c0 2.618 1.337 4.667 2.88 7.033 2.113 3.235 4.611 7.067 4.611 13.768s-2.499 10.532-4.611 13.768c-1.543 2.365-2.88 4.413-2.88 7.032 0 5.302 4.293 9.6 9.59 9.6s9.588-4.298 9.588-9.6c0-2.618-1.302-4.667-2.803-7.032-2.056-3.237-4.488-7.068-4.488-13.768s2.432-10.533 4.488-13.768z" fill="#ffd634"/></svg>