<svg id="x" xmlns="http://www.w3.org/2000/svg" width="150" height="119" fill="none" xmlns:v="https://vecta.io/nano"><path d="M.079.357c.238.714 40.595 51.587 40.833 51.508.714-.238 9.365-11.23 9.087-11.587-.159-.238-4.603-5.952-9.841-12.738l-9.603-12.619c0-.119 4.087-.238 9.127-.238h9.087l8.532 10.595 8.532 10.635-1.309 1.587L0 118.452c0 .119 12.659.199 28.095.199h28.095l6.508-8.095c3.571-4.405 6.429-8.215 6.389-8.413-.159-.476-8.929-11.23-9.167-11.23-.119 0-2.659 2.936-5.675 6.548l-5.476 6.508h-9.127c-5.595 0-9.087-.158-9.008-.357.079-.238 11.627-14.921 25.714-32.619l26.706-33.73 1.071-1.468-13.968-17.897L56.151 0H28.056L.079.357z" fill="#ebbe5a"/><path d="M87.341 8.016c-3.571 4.444-6.468 8.214-6.468 8.373.04.397 8.929 11.349 9.206 11.349.119 0 2.659-2.936 5.675-6.548l5.476-6.508h9.127c5.635 0 9.087.159 9.008.397-.04.198-12.064 15.555-26.706 34.127L66.071 83.333c0 .159 6.23 8.175 13.889 17.818l13.889 17.5h28.095l27.976-.357c-.238-.715-40.595-51.588-40.833-51.508-.714.238-9.365 11.23-9.087 11.587.159.198 4.603 5.952 9.841 12.738l9.603 12.619c0 .119-4.087.238-9.087.238h-9.127l-8.333-10.119c-4.603-5.555-8.373-10.317-8.373-10.555 0-.198 14.722-18.968 32.738-41.627L150 .198C150 .079 137.341 0 121.905 0H93.809l-6.468 8.016z" fill="#fff"/></svg>