<svg xmlns="http://www.w3.org/2000/svg" width="250" height="154" fill="none" xmlns:v="https://vecta.io/nano"><path d="M245.971 108.436l-54.06-93.769c-11.85-19.55-40.749-19.75-52.189.83l-56.76 97.519c-10.6 17.88 2.5 40.33 23.71 40.33h113.729c21.41 0 37.42-23.08 25.57-44.91z" fill="#3156aa"/><path d="M168.001 115.716l-3.33-5.82-9.98-17.05-45.74-79.429c-11.85-17.67-39.919-19.13-51.769 3.12l-53.23 92.11c-11.02 19.34 2.08 44.49 25.99 44.7h113.109 48.239 28.69c-29.31.21-38.669-14.97-51.979-37.63z" fill="#1972e2"/><path d="M168.01 115.716l-3.33-5.82-9.98-17.05-29.529-51.98-42.42 72.359c-10.6 17.88 2.5 40.34 23.7 40.34h36.389 48.24 28.9c-29.52-.22-38.67-15.19-51.97-37.85z" fill="url(#A)"/><defs><linearGradient id="A" x1="70.365" y1="80.4" x2="193.565" y2="128.842" gradientUnits="userSpaceOnUse"><stop stop-color="#264ca2" stop-opacity="0"/><stop offset="1" stop-color="#234588"/></linearGradient></defs></svg>