<svg xmlns="http://www.w3.org/2000/svg" width="158" height="184" fill="none" xmlns:v="https://vecta.io/nano"><path fill-rule="evenodd" d="M3.212 4.064c20.705 25.383 43.439 57.272 47.116 62.43l.422.592c1.96 2.737 3.578 4.771 4.807 6.316 2.728 3.429 3.538 4.447 1.91 5.382-1.313.754-2.667 1.002-4.019 1.002-1.529 0-3.251-.744-4.505-1.945-.886-.849-6.952-9.747-15.211-22.691L21.98 36.892c-.334-.318-.328-.307 11.108 20.36C40.269 70.23 45.181 79.82 45.181 80.434c0 1.248-.337 1.904-1.861 3.621-2.541 2.864-3.677 6.081-4.497 12.739-.919 7.464-3.504 12.737-10.667 21.76-4.193 5.282-4.879 6.25-5.937 8.379-1.333 2.681-1.699 4.183-1.848 7.568-.157 3.58.149 5.893 1.232 9.314.948 2.997 1.937 4.976 4.467 8.933 2.183 3.414 3.44 5.951 3.44 6.944 0 .79.149.791 3.532.02 8.095-1.847 14.667-5.093 18.364-9.073 2.288-2.463 2.825-3.823 2.842-7.198.011-2.208-.066-2.67-.656-3.94-.962-2.068-2.713-3.786-6.572-6.451-5.056-3.492-7.216-6.302-7.813-10.168-.489-3.171.078-5.409 2.876-11.331 2.895-6.129 3.613-8.741 4.098-14.92.313-3.992.748-5.566 1.883-6.829 1.184-1.318 2.25-1.764 5.181-2.169 4.778-.659 7.82-1.907 10.321-4.235 2.169-2.019 3.077-3.965 3.216-6.894l.106-2.22-1.212-1.428C61.283 67.686.272 0 .002 0c-.058 0 1.387 1.829 3.21 4.064zm28.76 134.488c.993-1.776.465-4.058-1.195-5.174-1.569-1.053-4.006-.557-4.006.816 0 .419.229.724.746.993.87.452.934.961.249 2.001-.694 1.053-.638 1.979.158 2.607 1.282 1.015 3.097.457 4.048-1.243zm29.877-96.827c-1.959-.307-2.041-.343-1.12-.486 1.766-.274 5.937.099 8.811.79 6.71 1.611 12.815 5.738 19.332 13.067l1.731 1.947 2.477-.402c10.435-1.694 21.05-.348 29.929 3.795 2.443 1.14 6.294 3.409 6.775 3.992.152.186.435 1.382.625 2.658.659 4.416.33 7.8-1.008 10.328-.727 1.376-.768 1.812-.279 2.989.39.939 1.479 1.635 2.558 1.633 2.206-.003 4.58-3.606 5.681-8.618l.437-1.991.866.991c4.749 5.435 8.48 12.848 9.121 18.124l.166 1.375-.797-1.25c-1.375-2.152-2.755-3.617-4.523-4.798-3.186-2.13-6.556-2.855-15.479-3.329-8.06-.429-12.62-1.124-17.143-2.614-7.696-2.534-11.574-5.909-20.716-18.023-4.06-5.38-6.569-8.357-9.065-10.755-5.672-5.447-11.246-8.304-18.38-9.422zm69.753 12.013c.203-3.605.687-5.983 1.661-8.155.385-.86.746-1.563.801-1.563s-.112.635-.372 1.41c-.707 2.108-.824 4.99-.336 8.345.618 4.256.97 4.87 5.423 9.467 2.089 2.156 4.519 4.876 5.399 6.043l1.602 2.123-1.602-1.517c-1.958-1.855-6.462-5.474-7.456-5.991-.668-.347-.767-.341-1.178.073-.379.381-.46.954-.512 3.662-.082 4.22-.651 6.929-2.026 9.637-.743 1.465-.861 1.152-.188-.501.502-1.235.553-1.777.55-5.863-.008-8.208-.973-10.182-6.631-13.562-1.433-.856-3.795-2.091-5.248-2.745s-2.607-1.222-2.566-1.265c.161-.161 5.679 1.466 7.9 2.328 3.304 1.284 3.848 1.45 4.25 1.295.268-.104.399-.895.529-3.221zM59.75 47.437c-.533 6.337 1.928 14.815 5.904 20.344 3.082 4.286 7.86 7.617 11.388 7.939 2.31.211 3.004-.52 1.959-2.061-1.451-2.14-3.235-5.435-3.707-6.846-.293-.876-.931-3.465-1.416-5.753-1.659-7.81-3.289-10.851-7.055-13.161-1.372-.842-4.303-1.944-6.002-2.257l-.905-.167-.165 1.961zm67.031 61.495c-18.582-7.556-25.127-14.116-25.127-25.184 0-1.629.056-2.961.123-2.961s.787.537 1.598 1.195c3.768 3.053 7.987 4.356 19.669 6.077 6.873 1.014 10.741 1.831 14.31 3.027 11.341 3.799 18.358 11.509 20.032 22.011.486 3.051.201 8.773-.587 11.789-.623 2.382-2.523 6.675-3.026 6.84-.14.046-.277-.494-.313-1.23-.19-3.943-2.163-7.782-5.476-10.658-3.768-3.27-8.829-5.873-21.203-10.906zm-13.943-.831c.261.785.665 2.571.897 3.971 1.489 8.947-3.161 16.176-12.206 18.977-.957.296-4.729 1.042-8.381 1.656-7.393 1.243-10.693 2.124-14.008 3.737-2.351 1.144-5.197 2.857-5.028 3.027.055.055.591-.074 1.192-.288 4.18-1.482 8.833-2.25 15.901-2.621 2.805-.147 5.996-.382 7.091-.521 6.297-.801 10.662-2.733 14.056-6.223 1.888-1.941 3.014-3.75 3.922-6.301.575-1.618.652-2.219.657-5.086.005-2.921-.065-3.455-.689-5.252-.816-2.355-1.778-4.123-2.997-5.505l-.881-.998.474 1.427zm9.416 19.251c-2.47-5.361-3.036-10.536-1.684-15.363.145-.516.377-.939.518-.939s.722.319 1.294.708c1.138.773 3.42 2.076 9.498 5.424 7.587 4.177 11.912 7.412 14.852 11.108 2.576 3.236 4.17 6.922 4.937 11.417.435 2.546.18 8.673-.466 11.237-2.04 8.084-6.78 14.434-13.541 18.14-.99.542-1.88.988-1.976.99s.265-.924.802-2.06c2.274-4.802 2.533-9.473.814-14.672-1.053-3.184-3.2-7.068-7.535-13.634-5.039-7.633-6.274-9.664-7.513-12.356zm-46.505 17.583c-7.815 1.283-16.395 5.46-23.291 11.341l-2.053 1.751 1.804.285c9.415 1.484 11.95 2.801 18.481 9.596 3.758 3.91 5.028 4.78 8.145 5.584 4.578 1.18 9.092-.989 10.64-5.114.692-1.844.599-4.896-.194-6.429-1.888-3.649-7.387-4.829-10.046-2.156-2.215 2.227-1.57 5.582 1.185 6.158.631.133.613.105-.161-.248-1.206-.551-1.729-1.314-1.736-2.529-.015-2.849 3.212-4.448 6.214-3.08 2.198 1.002 3.071 2.311 3.071 4.606 0 3.534-2.978 6.197-6.443 5.762-1.852-.233-4.118-1.43-5.333-2.817-3.056-3.49-1.866-8.999 2.402-11.113 3.249-1.608 7.567-1.212 10.916 1.003 3.847 2.545 5.484 4.871 8.798 12.506 1.079 2.486 2.468 5.284 3.085 6.218 3.14 4.747 6.901 7.074 11.431 7.074 2.499 0 4.379-.461 6.744-1.653 1.757-.887 4.248-2.571 4.068-2.752-.051-.051-.779.178-1.619.509-4.947 1.948-9.976 1.815-12.896-.345-1.839-1.359-3.323-4.067-4.085-7.453-.132-.586-.567-3.175-.968-5.753-1.015-6.535-1.99-9.472-4.264-12.843-2.326-3.449-6.798-6.343-11.797-7.635-3.119-.807-8.73-1.026-12.098-.473zM64.802 94.413c.675-2.518 2.855-4.919 5.098-5.615 1.426-.442 4.374-.16 5.76.552 2.686 1.38 4.637 4.522 4.213 6.79-.516 2.766-4.957 4.978-10.064 5.015-2.609.018-3.573-.336-4.569-1.68-.617-.832-.85-3.526-.439-5.062zm10.173-4.077c1.34.826 1.684 2.048.897 3.178-.543.779-2.222 1.519-3.45 1.519-1.844 0-3.856-1.323-3.856-2.534 0-2.434 3.858-3.737 6.409-2.163z" fill="#ff007a"/></svg>