<svg xmlns="http://www.w3.org/2000/svg" xmlns:v="https://vecta.io/nano">
  <defs>
    <g id="arrow-up">
      <path d="M16.95 7.05l-9.9 9.9M10 7l6.95.049L17 14"/>
    </g>
    <g id="arrow-down">
      <path d="M16.95 16.95l-9.9-9.9M17 10l-.049 6.95L10 17"/>
    </g>
    <g id="arrow-left">
      <path d="M5 12h14m-9-5l-5 5m5 5l-5-5"/>
    </g>
    <g id="arrow-right">
      <path d="M19 12H5m9 5l5-5m-5-5l5 5"/>
    </g>
    <g id="globe">
      <path d="M12 3c4.982 0 9 4.018 9 9s-4.018 9-9 9m0 0c-4.982 0-9-4.018-9-9s4.018-9 9-9 M10.168 4.06c-2.89 4.825-2.89 11.056 0 15.881.846 1.413 2.819 1.413 3.665 0 2.89-4.825 2.89-11.056 0-15.881-.847-1.413-2.819-1.413-3.665 0z M3 12H21"/>
    </g>
    <g id="cross">
      <path d="M8 8L16 16 M16 8L8 16"/>
    </g>
    <g id="base">
      <path d="M17.968 36C27.927 36 36 27.942 36 18S27.927 0 17.968 0C8.52 0 .77 7.255 0 16.487h23.833v3.027H0C.77 28.745 8.52 36 17.968 36z"/>
    </g>
    <g id="bsc">
      <path d="M29.043 19.776l-.022-4.869h.017l-4.072-2.434-6.977 4.179-6.935-4.178-4.069 2.435v4.869l6.977 4.158v8.337l4.052 2.412 4.052-2.412v-8.337l6.977-4.158zM17.991 0L6.982 6.593l4.052 2.435 6.958-4.179 6.977 4.179 4.052-2.435L17.991 0zM4.074 29.817L4.052 21.5.002 19.068v13.206l11.029 6.57v-4.869l-6.957-4.158zM4.052 18.03v-4.846l4.072-2.434-4.072-2.435L0 10.749v4.846l4.052 2.434zm13.937-9.716l-4.052 2.435 4.052 2.435 4.072-2.434-4.072-2.435zm-6.955 17.344l-4.052-2.434v4.869l4.052 2.412v-4.846zm6.957 12.496l-4.052-2.434v4.846L17.991 43l4.072-2.434V35.72l-4.072 2.435zm13.935-29.84l-4.052 2.435 4.052 2.435v4.846l4.072-2.434V10.75l-4.072-2.435zM36 19.065L31.948 21.5l-.022 8.317-6.955 4.156v4.869L36 32.271V19.065zm-6.979 9.028l-4.052 2.412v-4.846l4.052-2.435v4.869z"/>
    </g>
    <g id="polygon">
      <path d="M25.244 21.128l8.065-4.639A1.38 1.38 0 0 0 34 15.295V6.017c0-.49-.265-.948-.691-1.194L25.244.184c-.427-.246-.957-.245-1.384 0l-8.065 4.639a1.38 1.38 0 0 0-.691 1.194v16.58L9.449 25.85l-5.655-3.252v-6.506l5.655-3.252 3.73 2.145V10.62L10.14 8.872a1.39 1.39 0 0 0-.692-.184c-.243 0-.483.064-.691.184L.691 13.511A1.38 1.38 0 0 0 0 14.706v9.277c0 .491.265.948.691 1.194l8.065 4.639c.426.245.957.245 1.384 0l8.065-4.638a1.38 1.38 0 0 0 .691-1.194V7.404l.102-.058 5.553-3.194 5.655 3.252v6.506l-5.655 3.252-3.725-2.143v4.364l3.033 1.745c.427.245.957.245 1.384 0v-.001z"/>
    </g>
    <g id="eth">
      <path d="M11.538 26.234c-.112.039-.176-.06-.252-.106L.112 19.421A.77.77 0 0 0 0 19.375v-.05l.066-.039a2.54 2.54 0 0 0 .276-.091l8.787-4.059 2.349-1.078h.056v.322l.003 11.853z M11.544 14.062h-.056l.011-.346V.399c-.013-.114-.005-.229.022-.341h.024l1.283 2.128 10.045 16.921c.032.056.058.114.087.175a1.91 1.91 0 0 1-.278-.083l-1.839-.855-2.86-1.326-4.596-2.113-1.842-.844z M11.525.053c-.028.111-.035.227-.022.341V13.71l-.011.346-2.349 1.078-8.787 4.059a2.7 2.7 0 0 1-.276.091c.254-.536.584-1.022.885-1.535L11.431.101c.023-.033.048-.064.075-.093l.019.045zm.019 14.009l1.845.839 4.595 2.113 2.86 1.326 1.839.855c.091.035.184.062.279.083.112.142-.054.148-.104.178l-2.869 1.725-8.233 4.946c-.069.041-.144.071-.217.106v-11.85l.005-.323zm-.045 14.416l7.187-4.301 4.115-2.469.124-.069c.012.114-.065.174-.112.24l-9.397 13.444-1.783 2.546c-.031.044-.079.252-.176.032.076-.066.043-.154.043-.227l-.001-9.195z M11.498 28.478v9.19c0 .078.034.167-.042.227-.16-.098-.229-.273-.336-.417L.23 21.895l-.135-.209c.094-.056.144.02.199.053L11.31 28.35l.188.128zM11.526.053l-.027-.042c.049-.032.043.015.05.039l-.023.003z"/>
    </g>
  </defs>
</svg>